<svg id="Capa_1" xmlns="http://www.w3.org/2000/svg" viewBox="0 0 1200 399.51"><style>.st0{fill:#ffffff;}</style><path class="st0" d="M71.99 192.57c24-.37 40.51 6.74 49.54 21.34 1.23 1.99 2.19 4.03 2.88 6.13.67 2.1 1.33 4.39 1.95 6.87.25.99.34 2.14.27 3.43-.06 1.3-.34 2.26-.83 2.87-.62.75-1.49 1.21-2.6 1.4-1.11.18-2.34.28-3.71.28h-15.02c-1.12 0-2.05-.13-2.78-.38-1.49-.61-2.42-1.6-2.79-2.97-.36-1.36-.86-2.72-1.48-4.08-.49-1.24-1.17-2.54-2.05-3.9-.86-1.36-1.78-2.41-2.78-3.15-1.74-1.23-3.41-2.28-5.02-3.15-1.49-.62-3.31-1.14-5.47-1.58-2.17-.43-4.39-.71-6.68-.83-2.28-.12-4.54-.07-6.77.18-2.23.25-4.21.74-5.94 1.49-2.85 1.23-5.04 2.69-6.6 4.35-1.54 1.67-2.62 4.18-3.24 7.52-.25.86-.31 1.82-.18 2.87.12 1.05.3 1.89.56 2.5.99 2.6 2.37 4.43 4.17 5.48 1.79 1.04 3.93 2.07 6.41 3.05 1.36.62 2.74 1.08 4.17 1.4 1.42.31 2.87.71 4.35 1.21 3.34 1.11 6.79 2.07 10.31 2.87 3.53.81 7.01 1.7 10.48 2.69.62.25 1.24.37 1.86.37.61 0 1.23.13 1.85.38 2.47.86 5.04 1.67 7.7 2.41 2.66.75 5.04 1.8 7.14 3.15 3.34 2.11 6.23 4.21 8.63 6.32 2.41 2.1 4.67 4.83 6.78 8.16.61.99 1.13 2.1 1.57 3.34.44 1.25.89 2.48 1.4 3.72.12.37.19.71.19 1.02 0 .31.06.59.19.84.49 1.98.73 4.45.73 7.42.25.62.25 1.24 0 1.86v3.34c-.25 1.36-.46 2.66-.65 3.9-.19 1.24-.46 2.47-.83 3.71-.75 2.23-1.55 4.28-2.41 6.13-.87 1.86-1.92 3.66-3.15 5.38-.5.63-.99 1.15-1.49 1.59-.49.43-.93.95-1.3 1.57-.62.75-1.3 1.46-2.05 2.14-.74.68-1.54 1.34-2.41 1.95-.62.49-1.27.99-1.95 1.49-.68.48-1.39.99-2.13 1.48-2.11 1.36-4.3 2.47-6.6 3.35-2.28.85-4.66 1.72-7.15 2.59-1.73.62-3.52 1.03-5.38 1.21-1.85.19-3.71.46-5.57.84-.86.25-1.69.34-2.5.27-.8-.06-1.57.03-2.32.28H81.8c-.25 0-.58-.03-1.02-.09-.44-.06-.77-.03-1.02.09-.62.12-1.68.19-3.16.19-1.48 0-2.53-.07-3.15-.19h-1.86c-.87-.25-1.77-.34-2.69-.28-.93.07-1.77-.03-2.5-.27-.62 0-1.18-.03-1.67-.1-.5-.07-1.06-.15-1.68-.28-1.48-.37-3.03-.68-4.64-.92-1.61-.25-3.1-.62-4.45-1.12-6.06-1.98-11.38-4.48-15.96-7.52-4.58-3.02-8.42-7.01-11.51-11.97-1.98-2.96-3.52-6.5-4.64-10.58-.25-.74-.4-1.48-.46-2.23-.07-.74-.22-1.54-.47-2.41-.25-.99-.44-2.19-.56-3.62-.12-1.42.12-2.5.74-3.25.62-.98 1.52-1.57 2.69-1.76 1.17-.18 2.5-.28 3.99-.28h14.85c1.11 0 2.1.19 2.97.56 1.36.62 2.17 1.64 2.41 3.06.25 1.42.68 2.87 1.3 4.35.49 1.49 1.11 2.86 1.86 4.09.74 1.23 1.54 2.41 2.42 3.52.62.74 1.3 1.43 2.04 2.04.74.62 1.49 1.18 2.23 1.68 2.72 1.73 6.05 3.15 10.02 4.27.86.25 1.69.37 2.5.37.8 0 1.7.12 2.69.37H74c.99.25 2.35.37 4.08.37s3.09-.12 4.09-.37c.36-.12.99-.19 1.86-.19.61-.12 1.26-.21 1.95-.28.67-.06 1.32-.21 1.95-.46 4.21-1.11 7.54-2.6 10.02-4.45 2.47-1.86 4.2-4.94 5.2-9.28.24-.86.28-1.86.09-2.97-.19-1.11-.4-1.97-.65-2.6-1.24-3.34-3.34-5.93-6.31-7.79-.38-.25-1.05-.62-2.05-1.12-1.86-1.11-3.93-2-6.22-2.68-2.29-.67-4.54-1.39-6.78-2.14-.86-.24-1.7-.47-2.5-.65-.81-.19-1.7-.4-2.69-.65-1.98-.62-3.99-1.14-6.04-1.58-2.04-.44-3.98-.95-5.85-1.58-.62-.25-1.11-.38-1.48-.38s-.81-.11-1.3-.36c-.99-.25-1.89-.49-2.69-.75-.81-.25-1.7-.49-2.69-.74-2.84-.99-5.57-2.01-8.16-3.06-2.6-1.05-5.01-2.26-7.24-3.62-2.85-1.85-5.44-4.02-7.79-6.49-2.35-2.48-4.21-5.32-5.57-8.54-.49-1.11-.86-2.25-1.11-3.43-.26-1.17-.56-2.44-.93-3.8-.26-1.12-.44-2.73-.56-4.82-.12-2.1-.07-3.84.18-5.2.12-.49.19-1.23.19-2.23.37-1.36.68-2.66.93-3.89.25-1.24.62-2.48 1.12-3.72 1.85-4.32 4.23-8.01 7.15-11.04 2.9-3.03 6.28-5.78 10.11-8.26 2.47-1.48 5.13-2.65 7.97-3.52 2.85-.86 5.88-1.68 9.1-2.42 1.23-.25 2.44-.39 3.61-.46 1.18-.06 2.38-.21 3.62-.47.37-.12.95-.12 1.77 0 .83.11 1.36.05 1.61-.2z"/><path class="st0" d="M226.9 278.68c.12.74.19 1.86.19 3.34 0 1.49-.13 2.53-.38 3.15v2.41c-.37 1.36-.58 2.67-.65 3.9-.06 1.24-.28 2.47-.65 3.71-.25 1.11-.5 2.26-.74 3.43-.25 1.17-.62 2.32-1.12 3.43-.86 2.1-1.73 4.05-2.6 5.84-.87 1.8-1.86 3.56-2.97 5.3-.75 1.11-1.52 2.13-2.32 3.06-.81.92-1.7 1.88-2.68 2.87l-1.3 1.3c-.63.62-1.27 1.17-1.95 1.67-.68.49-1.33.99-1.95 1.49-.99.74-2.08 1.39-3.24 1.95-1.18.56-2.38 1.15-3.63 1.77-1.23.62-2.5 1.05-3.8 1.3-1.3.25-2.63.49-3.98.74-.74.25-1.52.37-2.32.37-.8 0-1.63.13-2.5.38h-1.67c-.99.25-1.92.25-2.78 0H182c-.74-.25-1.51-.34-2.32-.29-.8.07-1.57-.03-2.32-.27-1.98-.62-3.87-1.17-5.66-1.68-1.8-.49-3.43-1.23-4.91-2.22-.87-.5-1.68-1.03-2.42-1.58-.73-.56-1.54-1.14-2.41-1.76-.5-.37-1.25-.93-2.23-1.67-.99-.75-1.86-.81-2.6-.19-.62.37-.93.83-.93 1.39s-.12 1.21-.37 1.95c-.25 1.23-.34 2.66-.28 4.26.06 1.61.1 3.09.1 4.45v18.93c0 1.61-.04 3.19-.1 4.74-.07 1.54-.4 2.81-1.02 3.79-.37.49-1.05.87-2.04 1.12-1 .25-2.11.4-3.34.47-1.24.06-2.48.06-3.71 0-1.24-.07-2.29-.1-3.15-.1h-6.31c-.5 0-.94-.07-1.3-.19h-1.49c-2.11-.62-3.22-1.82-3.34-3.61-.12-1.8-.18-3.93-.18-6.4V242.3c0-1.35-.04-2.81-.1-4.35-.07-1.55.21-2.76.83-3.63.5-.86 1.18-1.41 2.05-1.67.62-.24 1.4-.37 2.32-.37h15.12s2.05.31 2.78.93c.86.62 1.32 1.4 1.39 2.32.07.94.34 1.89.84 2.88.12.37.28.65.46.84.19.18.41.39.65.65 1.36.12 2.48-.26 3.34-1.12.87-.86 1.73-1.6 2.6-2.23 1.61-1.12 3.28-2.13 5.01-3.06 1.72-.93 3.65-1.7 5.75-2.32.98-.36 2.07-.62 3.24-.74 1.18-.12 2.32-.3 3.44-.56.49-.12 1.02-.12 1.58 0 .56.13 1.02.07 1.39-.19 7.05-.24 13.02.71 17.9 2.88 4.89 2.17 9.07 4.98 12.53 8.44.62.62 1.17 1.21 1.67 1.77.5.55.99 1.14 1.49 1.76.86 1.12 1.63 2.23 2.31 3.34.68 1.11 1.33 2.23 1.95 3.34.25.26.41.56.47.93s.21.8.47 1.3c.74 1.24 1.41 2.73 2.04 4.46.25.73.49 1.5.75 2.31.25.81.49 1.64.74 2.51.49 1.49.84 3.03 1.02 4.63.18 1.62.47 3.29.84 5.02 0 .62.02 1.3.09 2.04.07.75.16 1.49.28 2.23v2.04zm-26.17 4.27c.11-.62.18-1.45.18-2.51 0-1.04-.07-1.88-.18-2.5v-1.67c-.25-.74-.37-1.55-.37-2.41 0-.87-.12-1.73-.37-2.6-.25-1.23-.5-2.44-.75-3.62-.25-1.17-.62-2.25-1.11-3.24-1.49-3.96-3.41-7.11-5.75-9.46-2.36-2.35-5.7-4.09-10.03-5.2-.99-.25-2.07-.37-3.24-.37h-3.43c-.5.12-.93.18-1.3.18-.38 0-.81.07-1.3.19-.88.26-1.71.46-2.5.65-.81.19-1.59.46-2.32.84-3.22 1.36-5.72 3.47-7.52 6.31-1.8 2.85-3.25 6-4.36 9.46-.25.99-.43 2.01-.56 3.06-.12 1.05-.3 2.08-.56 3.06-.12.49-.18 1.3-.18 2.41-.25.49-.31 1.08-.19 1.76.12.69.12 1.34 0 1.95-.25.75-.25 1.43 0 2.05v3.9c0 .49.12.99.37 1.49 0 .86.07 1.54.2 2.04.11.74.24 1.49.36 2.23.12.75.3 1.49.56 2.23 1.11 3.59 2.44 6.53 3.99 8.82 1.54 2.28 3.74 4.3 6.59 6.03 1.72.99 3.77 1.79 6.13 2.42.48.12.92.15 1.3.09.37-.07.8-.02 1.3.09.49.12 1.23.21 2.23.28.99.07 1.8.03 2.42-.09.99-.25 2-.46 3.06-.65 1.04-.19 2.06-.47 3.06-.84 2.97-1.24 5.39-2.96 7.24-5.2 1.86-2.23 3.4-4.82 4.63-7.79.62-1.48 1.05-3.02 1.3-4.63.25-1.61.57-3.28.94-5.01 0-.62.03-1.24.09-1.86.04-.66.07-1.27.07-1.89z"/><path class="st0" d="M314.64 320.25c.25 1.36.4 2.72.46 4.08.07 1.36-.58 2.29-1.95 2.79-.75.36-1.61.55-2.6.55h-12.98c-1.13 0-2.2-.02-3.26-.09-1.04-.07-1.88-.34-2.5-.84-.87-.49-1.52-1.21-1.95-2.14-.44-.93-1.02-1.7-1.76-2.32-.25-.25-.56-.47-.93-.65-.38-.19-.86-.21-1.49-.1-.62.25-1.21.56-1.76.93-.56.37-1.15.68-1.77.93-.62.5-1.3.93-2.04 1.3-.75.38-1.49.76-2.23 1.12-1.61.74-3.28 1.33-5.01 1.77-1.73.43-3.52.89-5.39 1.39-.86.25-1.7.4-2.5.47-.81.07-1.64.15-2.51.27-.37 0-.75.03-1.12.09-.37.07-.74.1-1.12.1h-2.04c-1.24.25-2.47.25-3.71 0h-1.67c-.87-.25-1.7-.34-2.5-.28-.81.07-1.58-.03-2.32-.28-1.24-.25-2.42-.46-3.52-.65-1.12-.18-2.17-.53-3.15-1.02-3.59-1.36-6.65-3.12-9.19-5.29-2.53-2.17-4.54-5.03-6.03-8.63-.37-.86-.71-1.79-1.02-2.78-.3-.99-.59-2.05-.84-3.16-.25-.62-.34-1.23-.28-1.85.07-.62.03-1.24-.09-1.86-.12-.37-.22-1.14-.28-2.32-.07-1.18-.03-2.01.1-2.51.25-1.23.37-2.29.37-3.15.36-1.36.74-2.76 1.11-4.17.38-1.42.86-2.7 1.49-3.81 2.1-3.59 4.52-6.31 7.24-8.16 2.73-1.86 6.19-3.47 10.4-4.82 1.6-.63 3.27-1.05 5.01-1.3 1.73-.25 3.46-.56 5.19-.94.99-.24 2.04-.39 3.16-.46 1.11-.07 2.22-.21 3.34-.46.86-.26 1.72-.34 2.6-.28.86.07 1.8-.03 2.78-.29.87-.25 1.73-.36 2.6-.36.87 0 1.79-.12 2.79-.37 2.6-.62 4.97-1.15 7.14-1.58 2.17-.43 4.11-1.51 5.86-3.24 1.11-1.12 1.85-2.35 2.22-3.71.12-.38.16-.68.1-.93-.07-.25-.04-.49.09-.74.12-.26.18-.62.18-1.12v-1.11c-.12-.49-.21-.99-.27-1.5-.07-.48-.16-.92-.29-1.3-1.23-3.7-3.83-6.24-7.79-7.6-1.11-.37-2.44-.65-3.98-.84-1.55-.18-3.12-.25-4.73-.18-1.61.06-3.15.21-4.64.46-1.49.25-2.78.56-3.9.94-.74.25-1.45.58-2.13 1.02-.69.43-1.34.89-1.95 1.39-.62.5-1.27 1.18-1.95 2.04-.68.87-1.14 1.68-1.39 2.42-.62 1.24-1.15 2.41-1.58 3.52-.44 1.13-1.33 1.87-2.69 2.23-.99.25-2.04.37-3.15.37h-10.39c-.62 0-1.23.03-1.85.09-.63.07-1.18.04-1.68-.09h-1.67c-.25-.12-.56-.19-.93-.19s-.68-.12-.93-.37c-.99-.25-1.68-1.05-2.05-2.41-.12-.63-.12-1.24 0-1.86.12-.62.25-1.18.37-1.68.38-1.36.77-2.63 1.21-3.8.44-1.17.96-2.26 1.58-3.25.38-.62.75-1.23 1.12-1.86.37-.61.74-1.23 1.11-1.86.99-1.36 2.23-2.65 3.71-3.89.26-.11.62-.44 1.12-.93.62-.49 1.17-.93 1.67-1.3s1.05-.74 1.68-1.12c2.1-1.36 4.33-2.44 6.68-3.24 2.35-.8 4.76-1.58 7.24-2.32 1.49-.36 3.03-.62 4.64-.74 1.6-.12 3.21-.37 4.82-.75.49-.11 1.27-.11 2.32 0 1.05.13 1.7.07 1.95-.18 5.08-.11 9.93.07 14.57.56 4.64.49 8.85 1.42 12.62 2.78 3.78 1.36 7.02 3.19 9.75 5.47 2.72 2.29 4.82 5.23 6.31 8.81.86 2.11 1.36 4.52 1.49 7.24.12 2.72.19 5.5.19 8.35v48.53c0 2.41.25 4.61.73 6.58.12.37.19.77.19 1.21-.04.45.03.86.15 1.23zm-27.28-28.58c.12-.62.19-1.33.19-2.14 0-.8-.07-1.51-.19-2.14-.25-.73-.37-1.42-.37-2.03 0-.62-.25-1.12-.74-1.49-.63-.49-1.54-.75-2.79-.75-.49.13-.93.21-1.3.28-.37.06-.81.16-1.3.28-.87.25-1.8.43-2.78.56-.99.12-1.99.3-2.97.55-.37.13-.93.19-1.67.19-1.61.38-3.22.62-4.83.74-1.6.13-3.15.44-4.63.94-1 .25-1.92.46-2.79.65-.86.18-1.73.46-2.6.83-2.6 1.11-4.8 2.79-6.59 5.01-1.79 2.23-2.44 5.32-1.95 9.28.25 2.1.94 3.85 2.05 5.2.87 1.36 2.17 2.45 3.9 3.24 1.73.81 3.62 1.39 5.66 1.77 2.04.37 4.21.46 6.5.28 2.28-.19 4.42-.59 6.4-1.21 3.22-.99 5.76-2.57 7.61-4.73 1.85-2.17 3.28-4.86 4.27-8.07.24-.86.39-1.77.46-2.69.07-.93.21-1.89.46-2.87v-1.68z"/><path class="st0" d="M360.08 229.32c10.03-.25 18.41 1.23 25.15 4.45 6.74 3.22 12.09 7.79 16.05 13.73 1.98 2.97 3.47 6.37 4.46 10.21.24.62.47 1.42.65 2.41.18.99.15 1.86-.1 2.6-.49 1.36-1.36 2.14-2.6 2.32-1.23.19-2.72.28-4.45.28h-13.08s-2.14-.25-2.87-.74c-.99-.49-1.67-1.26-2.05-2.32-.37-1.05-.87-2.14-1.48-3.24-.75-1.36-1.55-2.6-2.41-3.72-.86-1.11-1.87-2.09-2.97-2.97-1.73-1.11-3.66-1.98-5.75-2.6-.75-.25-1.49-.37-2.23-.37-.75 0-1.43-.12-2.05-.38h-1.86c-2.48 0-4.46.25-5.94.75-3.59 1.11-6.5 2.82-8.72 5.1-2.23 2.29-4.03 5.04-5.38 8.26-.62 1.36-1.09 2.81-1.4 4.35-.3 1.55-.65 3.19-1.02 4.93-.11.49-.18.99-.18 1.49 0 .49-.07.99-.19 1.48-.25 1.24-.34 2.97-.28 5.2s.21 3.96.47 5.19c0 1 .07 1.67.18 2.05.25.87.4 1.73.47 2.6.06.86.21 1.73.46 2.6.99 2.84 2.17 5.44 3.53 7.79 1.36 2.35 3.09 4.33 5.19 5.93.49.38 1.24.81 2.23 1.31 1.36.86 2.75 1.43 4.18 1.67 1.42.25 3.18.5 5.28.75h1.12c.49 0 .86-.07 1.12-.19h1.67c.86-.25 1.7-.47 2.5-.65.81-.19 1.58-.4 2.32-.65 3.7-1.61 6.55-3.96 8.52-7.06.5-.62.94-1.32 1.32-2.13.36-.8.66-1.5.92-2.14.49-1.35.93-2.56 1.3-3.61.37-1.05 1.24-1.89 2.6-2.5 1.11-.49 2.91-.71 5.37-.65 2.48.07 4.52.09 6.13.09.87 0 1.76-.03 2.69-.09.93-.06 1.7.03 2.32.28h1.49c.49.12.99.21 1.49.27.49.07.86.23 1.12.47.61.49 1.02 1.21 1.2 2.14.19.93.15 1.89-.09 2.87-1.11 4.08-2.47 7.74-4.08 10.95-5.07 9.54-13.17 16.15-24.31 19.86-1.23.37-2.54.65-3.89.84-1.37.18-2.73.46-4.08.83-.75.12-1.49.19-2.23.19s-1.48.06-2.23.18h-2.04c-.62.26-1.55.34-2.79.28-1.24-.07-2.17-.15-2.79-.28-.99-.25-1.88-.34-2.69-.27-.8.07-1.63-.04-2.5-.28-.62-.13-1.24-.22-1.86-.28-.62-.07-1.24-.16-1.85-.28-1.36-.37-2.67-.75-3.91-1.12-1.23-.36-2.41-.8-3.52-1.3-5.81-2.47-10.7-5.66-14.65-9.55-3.97-3.9-7.19-8.76-9.65-14.57-.62-1.12-1.12-2.32-1.49-3.62-.37-1.3-.75-2.63-1.12-3.99-.12-.49-.19-.95-.19-1.39 0-.43-.12-.96-.36-1.58-.25-.87-.37-1.77-.37-2.69 0-.92-.13-1.81-.38-2.69v-3.15c-.25-.62-.37-1.33-.37-2.13 0-.81.12-1.52.37-2.14.12-.62.12-1.17 0-1.67s-.12-.99 0-1.49c.25-.87.34-1.67.28-2.41-.07-.74.03-1.49.28-2.23.62-2.23 1.11-4.36 1.49-6.41.37-2.05.92-4.05 1.67-6.03 2.72-6.31 6.15-11.56 10.3-15.78 4.14-4.2 9.43-7.6 15.86-10.2 1.73-.75 3.53-1.26 5.39-1.58 1.86-.31 3.78-.71 5.75-1.22.99-.11 1.92-.18 2.79-.18.85 0 1.79-.06 2.77-.18z"/><path class="st0" d="M498.62 278.87c.25.99.25 2.09 0 3.34-.25 1.23-.68 2.04-1.3 2.41-.62.49-1.52.84-2.69 1.02-1.18.19-2.47.31-3.9.38-1.43.07-2.85.07-4.27 0-1.42-.07-2.69-.1-3.8-.1h-47.79c-.8 0-1.5.12-2.13.37-.99.5-1.61.99-1.86 1.49-.26.25-.49.71-.74 1.4-.25.67-.31 1.32-.19 1.95.25.74.4 1.45.46 2.13.07.69.21 1.4.47 2.13.99 2.97 2.19 5.41 3.62 7.33 1.42 1.93 3.37 3.63 5.84 5.11.99.62 2.02 1.03 3.06 1.21 1.05.18 2.14.47 3.24.83.99.25 2.36.44 4.09.57 1.73.12 3.22.07 4.45-.19h1.67c1.23-.25 2.38-.52 3.43-.84 1.05-.3 2.08-.65 3.06-1.02 1.23-.62 2.63-1.42 4.18-2.41 1.54-.99 2.69-1.98 3.42-2.97.62-.87 1.27-1.7 1.95-2.5.67-.8 1.51-1.4 2.5-1.77 1.23-.62 2.81-.89 4.73-.84 1.92.07 3.68.1 5.29.1.75 0 1.51-.03 2.32-.1.81-.06 1.52.04 2.14.29h1.86c1.24.24 2.1.55 2.6.92.48.25.77.81.83 1.68.07.86-.03 1.6-.28 2.23-.62 1.73-1.3 3.29-2.04 4.64-.75 1.36-1.61 2.72-2.6 4.08-2.72 4.08-5.81 7.37-9.27 9.83-3.47 2.48-7.79 4.57-12.99 6.31-1.36.5-2.72.81-4.08.94-1.36.12-2.78.37-4.27.74-.49.12-1.02.16-1.58.09-.56-.06-1.08-.03-1.58.09h-2.04c-.62.26-1.33.34-2.13.28-.81-.07-1.52-.15-2.14-.28-.99-.12-1.86-.12-2.6 0-.75.13-1.55.07-2.41-.18-.62-.26-1.3-.37-2.04-.37-.75 0-1.43-.13-2.05-.37-1.36-.25-2.72-.53-4.09-.84-1.35-.3-2.6-.77-3.7-1.4-1.36-.49-2.63-.96-3.8-1.4-1.18-.42-2.26-.95-3.25-1.57-3.96-2.48-7.48-5.35-10.57-8.63-3.1-3.27-5.64-7.08-7.61-11.41-.62-1.36-1.12-2.76-1.49-4.18-.37-1.42-.87-2.87-1.49-4.35-.12-.5-.18-.96-.18-1.4 0-.43-.07-.89-.18-1.39-.5-1.49-.81-3.09-.94-4.83-.12-1.72-.25-3.46-.37-5.18 0-.62-.03-1.31-.09-2.05-.07-.75-.03-1.42.09-2.05v-2.23l.56-4.46c.49-2.09.93-4.14 1.3-6.12.37-1.98.93-3.84 1.67-5.56 5.32-12.87 14.35-21.96 27.1-27.28 1.73-.75 3.5-1.26 5.29-1.58 1.79-.31 3.68-.71 5.66-1.22.99-.11 1.91-.18 2.79-.18.85 0 1.79-.06 2.78-.18 6.31-.12 11.72.59 16.24 2.13 4.52 1.54 8.57 3.56 12.16 6.03 1.12.74 2.23 1.58 3.34 2.5 1.12.94 2.1 1.9 2.97 2.88.37.62.87 1.11 1.49 1.49.99 1.36 1.92 2.75 2.79 4.17.85 1.42 1.79 2.88 2.78 4.36.62 1.12 1.14 2.26 1.58 3.43.43 1.18.89 2.44 1.4 3.8.62 1.61 1.11 3.28 1.48 5.01.38 1.73.8 3.47 1.3 5.2.25.99.34 2.07.29 3.24-.07 1.18.03 2.27.27 3.25v2.05zm-27.83-10.95c.86-1.25.95-2.75.28-4.55-.68-1.79-1.21-3.13-1.58-3.99-1.74-3.34-4.02-5.91-6.87-7.7-2.85-1.79-6.81-2.75-11.88-2.87-.38.25-.81.31-1.3.18-.5-.11-.93-.11-1.31 0-.62.25-1.3.41-2.04.47-.75.07-1.42.21-2.05.47-5.45 1.73-9.46 5.13-12.06 10.2-.26.5-.53 1.15-.83 1.95-.31.81-.54 1.61-.66 2.41-.12.81-.1 1.58.09 2.32.19.75.58 1.36 1.21 1.86.99.62 2.35.92 4.08.92h25.61c1.73 0 3.56-.02 5.48-.09 1.94-.07 3.21-.59 3.83-1.58z"/><path class="st0" d="M535.31 229.32c9.28-.25 17.35.77 24.22 3.05 6.87 2.3 12.09 6.23 15.68 11.79.87 1.36 1.64 2.75 2.32 4.17.67 1.43 1.26 3.01 1.77 4.74.24.74.36 1.55.36 2.41 0 .87-.12 1.61-.36 2.23-.5.74-1.19 1.23-2.05 1.49-.62.25-1.36.37-2.23.37h-10.77c-.86 0-1.73.03-2.6.09-.87.07-1.67-.03-2.42-.28-1.24-.25-2.17-.75-2.78-1.48-.62-.75-1.17-1.52-1.67-2.32-.49-.81-.96-1.67-1.4-2.6-.43-.92-1.08-1.69-1.95-2.32-1.23-.99-2.45-1.73-3.61-2.23-1.18-.49-2.64-.93-4.36-1.31-.87-.24-2.13-.42-3.8-.55-1.68-.12-2.95-.06-3.8.19h-1.31c-.62.12-1.2.21-1.76.27-.57.07-1.16.16-1.76.28-2.11.62-3.8 1.46-5.11 2.5-1.3 1.06-2.2 2.63-2.69 4.74-.25.86-.25 1.67 0 2.41.24.75.48 1.36.74 1.86.87 1.49 1.88 2.66 3.06 3.53 1.17.86 2.57 1.6 4.18 2.23 2.34.98 4.91 1.82 7.7 2.5 2.78.68 5.63 1.3 8.53 1.85 2.91.56 5.76 1.19 8.54 1.86 2.79.69 5.41 1.52 7.89 2.51 1.11.49 2.19.89 3.25 1.2 1.04.32 2.07.78 3.05 1.4 2.35 1.49 4.48 3.1 6.41 4.83 1.92 1.73 3.43 3.89 4.54 6.49.37.87.68 1.73.93 2.6.25.87.5 1.81.74 2.78.12.75.22 1.89.29 3.43.07 1.55.03 2.76-.1 3.62v.93c-.25.75-.4 1.46-.46 2.13-.07.69-.16 1.34-.28 1.96-.87 3.7-2.23 6.98-4.09 9.82-1.97 2.97-4.39 5.39-7.23 7.24-2.85 1.86-6.07 3.47-9.65 4.82-1.36.62-2.82 1.05-4.37 1.3-1.54.25-3.06.56-4.55.94-1.11.24-2.25.4-3.42.46-1.17.07-2.32.21-3.43.46h-3.34c-.74.26-2.01.38-3.8.38s-3.06-.12-3.8-.38c-.37 0-.78-.02-1.2-.09-.44-.06-.9-.09-1.4-.09-1.49-.26-2.97-.44-4.46-.56-1.48-.12-2.9-.37-4.26-.74-4.82-1.36-9.09-2.94-12.8-4.74-3.71-1.79-6.87-4.48-9.47-8.07-1.73-2.35-3.22-5.08-4.45-8.16-.25-.75-.49-1.73-.74-2.97-.25-.62-.44-1.49-.56-2.6-.13-1.11-.07-2.04.18-2.78.38-.86.99-1.49 1.86-1.86.61-.25 1.36-.37 2.22-.37h14.49c.99 0 1.86.12 2.6.37 1.36.49 2.26 1.3 2.69 2.42.43 1.11.95 2.28 1.58 3.52.25.62.71 1.42 1.4 2.41.67.99 1.26 1.62 1.76 1.87 1.49 1.23 2.91 2.19 4.26 2.87 1.37.67 3.1 1.32 5.2 1.95.62.25 1.24.34 1.86.28.62-.07 1.24-.03 1.86.09.99.26 2.07.35 3.24.28 1.18-.06 2.2-.21 3.07-.47.62-.11 1.21-.18 1.76-.18.56 0 1.14-.12 1.77-.37 1.73-.62 3.3-1.36 4.73-2.23 1.42-.87 2.57-1.98 3.43-3.34.62-.99 1.12-2.54 1.49-4.64.25-.86.25-1.67 0-2.42-.25-.74-.5-1.36-.75-1.86-.86-1.73-1.95-3.03-3.24-3.89-1.3-.86-2.82-1.67-4.55-2.41-2.35-.99-4.82-1.79-7.42-2.41-2.6-.62-5.2-1.31-7.79-2.05-.99-.25-2.02-.44-3.06-.56-1.05-.12-2.07-.31-3.06-.55-3.96-1.12-7.74-2.2-11.33-3.26-3.58-1.04-6.86-2.62-9.83-4.72-3.46-2.48-6-5.82-7.6-10.03-.25-.86-.49-2.04-.74-3.52-.25-.85-.44-1.91-.56-3.15-.13-1.23-.07-2.35.18-3.34.25-.62.31-1.14.19-1.57-.12-.44-.07-.96.19-1.58.25-1.36.52-2.63.83-3.8.31-1.17.71-2.32 1.21-3.43 1.61-3.58 3.84-6.49 6.68-8.72 2.85-2.24 6.07-4.02 9.65-5.38 1.36-.62 2.79-1.08 4.27-1.39 1.49-.31 3.03-.65 4.64-1.03.74-.25 1.49-.4 2.23-.46s1.48-.15 2.23-.29c.99-.11 2.05-.18 3.15-.18 1.08-.01 2.14-.07 3.12-.19z"/><path class="st0" d="M588 195.55h16.24c1.17 0 2.14.3 2.87.92.86.5 1.43 1.55 1.67 3.15 0 .62.03 1.21.1 1.77.06.56.09 1.14.09 1.77v28.02c0 .87-.03 1.86-.09 2.98-.07 1.11-.04 2.19.09 3.24.11 1.05.4 1.93.84 2.6.43.69 1.07 1.03 1.95 1.03.24-.25.49-.37.74-.37s.5-.12.75-.37c.86-.62 1.67-1.33 2.41-2.13.75-.81 1.61-1.51 2.6-2.14 1.36-.98 2.79-1.84 4.27-2.59 1.48-.75 3.09-1.49 4.82-2.23.49-.24.99-.36 1.49-.36.49 0 1.04-.12 1.67-.38 1.23-.37 2.53-.62 3.89-.75 1.36-.11 2.85-.18 4.46-.18h1.76c.56 0 1.14.07 1.77.18h1.12c.86.13 1.7.26 2.5.38.81.12 1.63.25 2.51.37 2.09.62 4.04 1.27 5.83 1.95 1.79.69 3.56 1.53 5.3 2.51 2.71 1.73 4.91 3.93 6.58 6.59 1.68 2.66 3.07 5.59 4.18 8.81.25.99.46 2.01.65 3.06.18 1.04.4 2.07.65 3.06.25 1.11.37 2.28.37 3.52 0 1.24.12 2.47.38 3.71v2.04c.25.99.3 2.08.18 3.24-.12 1.19-.18 2.26-.18 3.25V314.32c0 2.1.06 4.34.18 6.68.12 2.36-.3 4.15-1.31 5.39-.61.75-1.6 1.14-2.97 1.21-1.36.07-2.72.09-4.07.09H655c-1.99 0-3.66-.09-5.01-.28-1.36-.19-2.36-.95-2.97-2.32-.37-.75-.56-1.65-.56-2.69v-43.32c0-5.2-.25-9.99-.75-14.39-.49-4.39-2.03-7.83-4.63-10.3-1.74-1.73-3.84-2.97-6.31-3.71-.5-.12-.9-.19-1.21-.19-.3 0-.72-.06-1.2-.18-.51-.12-1.16-.25-1.96-.37s-1.44-.07-1.95.19c-.74.12-1.51.18-2.32.18-.81 0-1.58.12-2.32.37-2.85.75-5.33 1.86-7.42 3.34-2.23 1.73-3.87 4.05-4.92 6.96-1.05 2.91-1.76 6.18-2.14 9.83-.37 3.66-.52 7.52-.46 11.6s.09 8.04.09 11.88V321.85c0 1.79-.31 3.19-.93 4.18-.37.49-.87.83-1.49 1.02-.62.18-1.23.39-1.85.65-.75.25-1.59.3-2.51.18-.92-.12-1.82-.18-2.69-.18-1.11 0-2.41.03-3.89.1-1.49.06-2.97.08-4.47.08-1.48 0-2.84-.08-4.08-.27-1.23-.19-2.16-.53-2.78-1.03-.75-.62-1.15-1.58-1.21-2.87-.07-1.3-.09-2.63-.09-3.99V208.16c0-1.6-.06-3.53-.19-5.76-.12-2.23.13-3.83.74-4.82.75-.86 1.73-1.49 2.97-1.86.25-.11.49-.16.74-.09.28.06.53.04.77-.08zM705.38 196.66c.86.99 1.3 2.47 1.3 4.45v10.76c0 1.74-.44 2.91-1.3 3.53-.74.62-1.71.99-2.88 1.12-1.17.12-2.44.18-3.8.18h-10.39c-1.36 0-2.57-.06-3.61-.18-1.05-.12-1.95-.49-2.69-1.12-.49-.37-.84-1.08-1.03-2.13-.18-1.04-.3-2.23-.36-3.53-.07-1.3-.07-2.62 0-3.98.06-1.36.09-2.53.09-3.52s.03-1.89.09-2.69c.07-.81.28-1.51.65-2.14.25-.48.59-.86 1.02-1.11.44-.25.89-.5 1.4-.74.25 0 .56-.03.93-.1s.67-.09.92-.09h13.55c1.24 0 2.41.07 3.52.19 1.11.11 1.97.47 2.59 1.1zm1.3 120.8c0 2.48-.07 4.58-.19 6.32-.12 1.73-1.23 2.91-3.33 3.52-.74.25-1.55.34-2.42.28-.87-.07-1.79-.1-2.78-.1h-10.39c-1.12 0-2.2-.07-3.25-.18-1.05-.12-1.82-.49-2.32-1.12-.74-.86-1.14-1.95-1.21-3.24-.06-1.3-.09-2.69-.09-4.18v-78.3-3.72c0-1.23.25-2.23.74-2.97.74-.86 1.8-1.42 3.16-1.67.25-.12.58-.16 1.02-.1.43.06.77.03 1.01-.09h9.29c.74 0 1.58-.03 2.5-.09.92-.07 1.7-.03 2.32.09h1.49c.74.25 1.42.43 2.04.56.62.12 1.12.49 1.49 1.11.49.62.77 1.49.84 2.6.06 1.13.09 2.3.09 3.53v77.75zM810.53 278.68c.13.74.19 1.86.19 3.34 0 1.49-.12 2.53-.37 3.15v2.41c-.36 1.36-.59 2.67-.65 3.9-.07 1.24-.28 2.47-.66 3.71-.25 1.11-.48 2.26-.73 3.43-.26 1.17-.62 2.32-1.12 3.43-.86 2.1-1.74 4.05-2.6 5.84-.86 1.8-1.85 3.56-2.97 5.3-.75 1.11-1.52 2.13-2.32 3.06-.81.92-1.71 1.88-2.69 2.87l-1.3 1.3c-.62.62-1.27 1.17-1.95 1.67-.67.49-1.32.99-1.95 1.49-.99.74-2.07 1.39-3.24 1.95-1.18.56-2.38 1.15-3.62 1.77-1.24.62-2.51 1.05-3.8 1.3-1.3.25-2.63.49-3.99.74-.74.25-1.52.37-2.32.37-.81 0-1.64.13-2.5.38h-1.68c-.99.25-1.91.25-2.79 0h-1.86c-.73-.25-1.51-.34-2.32-.29-.81.07-1.58-.03-2.32-.27-1.98-.62-3.87-1.17-5.67-1.68-1.79-.49-3.43-1.23-4.91-2.22-.87-.5-1.68-1.03-2.42-1.58-.74-.56-1.55-1.14-2.41-1.76-.5-.37-1.24-.93-2.24-1.67-.99-.75-1.86-.81-2.6-.19-.62.37-.93.83-.93 1.39s-.12 1.21-.37 1.95c-.25 1.23-.34 2.66-.28 4.26.06 1.61.09 3.09.09 4.45v18.93c0 1.61-.03 3.19-.09 4.74-.07 1.54-.4 2.81-1.02 3.79-.37.49-1.06.87-2.04 1.12-.99.25-2.1.4-3.34.47-1.24.06-2.49.06-3.72 0-1.23-.07-2.28-.1-3.15-.1h-6.31c-.49 0-.93-.07-1.3-.19h-1.48c-2.11-.62-3.22-1.82-3.34-3.61-.12-1.8-.19-3.93-.19-6.4V242.3c0-1.35-.04-2.81-.1-4.35-.06-1.55.22-2.76.84-3.63.49-.86 1.18-1.41 2.05-1.67.62-.24 1.4-.37 2.32-.37h15.11c1.12 0 2.05.31 2.79.93.86.62 1.32 1.4 1.39 2.32.06.94.34 1.89.84 2.88.12.37.28.65.46.84.19.18.4.39.65.65 1.36.12 2.48-.26 3.34-1.12.86-.86 1.73-1.6 2.6-2.23 1.6-1.12 3.28-2.13 5.01-3.06 1.73-.93 3.64-1.7 5.75-2.32.99-.36 2.07-.62 3.24-.74 1.18-.12 2.32-.3 3.43-.56.5-.12 1.03-.12 1.58 0 .56.13 1.02.07 1.4-.19 7.06-.24 13.02.71 17.91 2.88s9.06 4.98 12.52 8.44c.62.62 1.17 1.21 1.68 1.77.49.55.99 1.14 1.48 1.76.87 1.12 1.65 2.23 2.32 3.34.68 1.11 1.32 2.23 1.95 3.34.25.26.4.56.47.93.06.37.21.8.46 1.3.74 1.24 1.42 2.73 2.05 4.46.24.73.48 1.5.74 2.31.25.81.49 1.64.75 2.51.48 1.49.84 3.03 1.02 4.63.18 1.62.46 3.29.84 5.02 0 .62.03 1.3.09 2.04.06.75.15 1.49.27 2.23v2.04zm-26.16 4.27c.12-.62.18-1.45.18-2.51 0-1.04-.06-1.88-.18-2.5v-1.67c-.25-.74-.37-1.55-.37-2.41 0-.87-.13-1.73-.38-2.6-.25-1.23-.49-2.44-.74-3.62-.25-1.17-.62-2.25-1.12-3.24-1.48-3.96-3.4-7.11-5.75-9.46-2.36-2.35-5.69-4.09-10.02-5.2-.99-.25-2.07-.37-3.24-.37h-3.43c-.5.12-.93.18-1.31.18-.37 0-.8.07-1.3.19-.87.26-1.71.46-2.5.65-.81.19-1.59.46-2.32.84-3.21 1.36-5.72 3.47-7.51 6.31-1.8 2.85-3.25 6-4.37 9.46-.25.99-.43 2.01-.55 3.06-.12 1.05-.31 2.08-.56 3.06-.12.49-.19 1.3-.19 2.41-.25.49-.3 1.08-.18 1.76.12.69.12 1.34 0 1.95-.25.75-.25 1.43 0 2.05v3.9c0 .49.12.99.37 1.49 0 .86.07 1.54.19 2.04.12.74.25 1.49.37 2.23.12.75.3 1.49.55 2.23 1.12 3.59 2.45 6.53 3.99 8.82 1.54 2.28 3.75 4.3 6.6 6.03 1.73.99 3.76 1.79 6.12 2.42.49.12.93.15 1.3.09.38-.07.81-.02 1.31.09.49.12 1.23.21 2.23.28.99.07 1.79.03 2.41-.09.99-.25 2.01-.46 3.07-.65 1.04-.19 2.06-.47 3.05-.84 2.97-1.24 5.39-2.96 7.24-5.2 1.86-2.23 3.41-4.82 4.64-7.79.62-1.48 1.04-3.02 1.3-4.63.25-1.61.56-3.28.94-5.01 0-.62.02-1.24.08-1.86.04-.66.08-1.27.08-1.89zM818.31 195.36h15.77c1.36 0 2.69.03 3.99.09 1.3.07 2.25.52 2.87 1.4.62.86.93 2 .93 3.42v88.62c0 1-.03 1.95-.09 2.88-.07.93.03 1.82.28 2.68v1.86c0 .87.03 1.7.08 2.51.07.8.22 1.51.47 2.13.86 1.61 2.6 2.41 5.2 2.41h43.6c.99 0 2.23-.03 3.72-.09 1.48-.07 2.9-.07 4.26 0 1.36.06 2.63.21 3.8.46 1.18.25 1.95.62 2.32 1.12.62.74.93 1.67.93 2.78V319.68c0 1 .03 1.92.09 2.78.06.87-.03 1.61-.27 2.23-.51.99-1.12 1.68-1.87 2.05-.62.49-1.54.74-2.78.74h-80.35c-1.74 0-3.25-.09-4.55-.28-1.3-.18-2.26-.76-2.87-1.75-.49-.76-.74-1.71-.74-2.88V203.34c0-1.12.03-2.23.08-3.34.07-1.12.29-1.98.66-2.6.49-.86 1.49-1.49 2.97-1.85.25-.12.48-.16.74-.1.25.06.51.03.76-.09z"/><path class="st0" d="M992.37 320.25c.25 1.36.4 2.72.46 4.08s-.59 2.29-1.95 2.79c-.74.36-1.61.55-2.6.55H975.3c-1.11 0-2.19-.02-3.25-.09-1.05-.07-1.88-.34-2.5-.84-.87-.49-1.52-1.21-1.95-2.14-.43-.93-1.02-1.7-1.76-2.32-.25-.25-.56-.47-.93-.65-.37-.19-.87-.21-1.49-.1-.62.25-1.2.56-1.76.93s-1.15.68-1.76.93c-.62.5-1.31.93-2.04 1.3-.75.38-1.49.76-2.23 1.12-1.61.74-3.28 1.33-5.01 1.77-1.73.43-3.52.89-5.38 1.39-.87.25-1.7.4-2.5.47-.81.07-1.65.15-2.51.27-.37 0-.75.03-1.12.09-.37.07-.74.1-1.12.1h-2.04c-1.24.25-2.47.25-3.71 0h-1.67c-.87-.25-1.71-.34-2.5-.28-.81.07-1.59-.03-2.32-.28-1.24-.25-2.42-.46-3.53-.65-1.11-.18-2.17-.53-3.15-1.02-3.59-1.36-6.65-3.12-9.19-5.29-2.53-2.17-4.54-5.03-6.03-8.63-.36-.86-.71-1.79-1.02-2.78-.3-.99-.59-2.05-.83-3.16-.26-.62-.35-1.23-.28-1.85.06-.62.02-1.24-.1-1.86-.12-.37-.22-1.14-.28-2.32-.06-1.18-.03-2.01.1-2.51.24-1.23.37-2.29.37-3.15.37-1.36.74-2.76 1.11-4.17.38-1.42.87-2.7 1.49-3.81 2.1-3.59 4.51-6.31 7.24-8.16 2.71-1.86 6.18-3.47 10.39-4.82 1.6-.63 3.27-1.05 5-1.3 1.74-.25 3.48-.56 5.2-.94.99-.24 2.04-.39 3.16-.46 1.11-.07 2.22-.21 3.34-.46.86-.26 1.73-.34 2.6-.28.87.07 1.8-.03 2.78-.29.86-.25 1.73-.36 2.6-.36.86 0 1.79-.12 2.78-.37 2.59-.62 4.98-1.15 7.15-1.58 2.16-.43 4.11-1.51 5.84-3.24 1.11-1.12 1.86-2.35 2.23-3.71.12-.38.16-.68.1-.93-.07-.25-.03-.49.09-.74.12-.26.18-.62.18-1.12v-1.11c-.12-.49-.21-.99-.27-1.5-.07-.48-.15-.92-.28-1.3-1.25-3.7-3.84-6.24-7.8-7.6-1.11-.37-2.44-.65-3.98-.84-1.55-.18-3.12-.25-4.73-.18-1.61.06-3.15.21-4.64.46-1.48.25-2.78.56-3.9.94-.74.25-1.44.58-2.14 1.02-.68.43-1.33.89-1.94 1.39-.62.5-1.28 1.18-1.95 2.04-.68.87-1.14 1.68-1.39 2.42-.62 1.24-1.15 2.41-1.59 3.52-.43 1.13-1.32 1.87-2.68 2.23-.99.25-2.04.37-3.15.37h-10.39c-.62 0-1.23.03-1.86.09-.62.07-1.17.04-1.67-.09h-1.67c-.25-.12-.56-.19-.93-.19s-.68-.12-.93-.37c-.99-.25-1.68-1.05-2.05-2.41-.12-.63-.12-1.24 0-1.86.12-.62.25-1.18.37-1.68.38-1.36.77-2.63 1.21-3.8.44-1.17.96-2.26 1.58-3.25.37-.62.75-1.23 1.12-1.86.37-.61.75-1.23 1.11-1.86.99-1.36 2.23-2.65 3.71-3.89.25-.11.62-.44 1.12-.93.62-.49 1.17-.93 1.68-1.3.48-.37 1.04-.74 1.66-1.12 2.11-1.36 4.34-2.44 6.68-3.24 2.35-.8 4.76-1.58 7.24-2.32 1.5-.36 3.04-.62 4.65-.74 1.6-.12 3.21-.37 4.82-.75.48-.11 1.26-.11 2.32 0 1.05.13 1.7.07 1.95-.18 5.08-.11 9.93.07 14.57.56 4.64.49 8.85 1.42 12.62 2.78 3.77 1.36 7.01 3.19 9.74 5.47 2.72 2.29 4.83 5.23 6.31 8.81.86 2.11 1.36 4.52 1.49 7.24.12 2.72.19 5.5.19 8.35v48.53c0 2.41.24 4.61.74 6.58.11.37.18.77.18 1.21-.03.45.03.86.16 1.23zm-27.28-28.58c.12-.62.19-1.33.19-2.14 0-.8-.07-1.51-.19-2.14-.25-.73-.37-1.42-.37-2.03 0-.62-.25-1.12-.74-1.49-.62-.49-1.54-.75-2.78-.75-.49.13-.93.21-1.3.28-.37.06-.81.16-1.31.28-.86.25-1.79.43-2.78.56-.99.12-1.99.3-2.97.55-.37.13-.93.19-1.67.19-1.61.38-3.22.62-4.83.74-1.61.13-3.15.44-4.64.94-.99.25-1.91.46-2.78.65-.87.18-1.74.46-2.6.83-2.6 1.11-4.8 2.79-6.6 5.01-1.8 2.23-2.44 5.32-1.95 9.28.24 2.1.93 3.85 2.04 5.2.87 1.36 2.17 2.45 3.9 3.24 1.73.81 3.61 1.39 5.66 1.77 2.05.37 4.21.46 6.5.28 2.28-.19 4.42-.59 6.4-1.21 3.22-.99 5.76-2.57 7.61-4.73 1.85-2.17 3.28-4.86 4.27-8.07.25-.86.39-1.77.46-2.69.06-.93.21-1.89.46-2.87v-1.68zM1094.44 283.25c-.12.74-.22 1.48-.29 2.23-.06.74-.08 1.42-.08 2.04-.38 1.73-.65 3.41-.84 5.01-.19 1.61-.52 3.15-1.03 4.64-.25.87-.49 1.7-.74 2.5-.25.81-.49 1.58-.74 2.32-.62 1.72-1.3 3.21-2.05 4.46-.25.48-.4.92-.46 1.3-.07.37-.21.67-.47.92-.62 1.13-1.27 2.24-1.95 3.34-.68 1.12-1.45 2.23-2.32 3.33-.48.62-.99 1.22-1.48 1.77s-1.05 1.13-1.68 1.76c-3.46 3.47-7.63 6.27-12.52 8.44-4.89 2.16-10.86 3.13-17.91 2.87-.37-.25-.84-.31-1.39-.18-.56.12-1.09.12-1.58 0-1.11-.25-2.26-.44-3.42-.56-1.17-.12-2.26-.37-3.25-.74-2.1-.62-4.02-1.4-5.75-2.32-1.74-.93-3.41-1.95-5.02-3.06-.85-.62-1.73-1.36-2.59-2.23-.88-.86-1.99-1.24-3.34-1.12-.25.25-.46.47-.65.66-.19.18-.34.46-.47.83-.49.99-.77 1.95-.83 2.88-.07.92-.53 1.69-1.4 2.32-.75.62-1.67.93-2.78.93h-15.11c-.94 0-1.71-.12-2.32-.37-.86-.26-1.54-.81-2.04-1.67-.62-.87-.9-2.08-.84-3.62.06-1.55.09-3 .09-4.36V208.65c0-2.48.07-4.61.19-6.41.12-1.79 1.22-3 3.33-3.61h1.49c.38-.12.81-.19 1.3-.19H1009.81c.87 0 1.92-.03 3.15-.09 1.24-.06 2.48-.06 3.72 0 1.22.06 2.35.21 3.34.46.99.25 1.68.62 2.05 1.12.62.99.96 2.26 1.03 3.8.06 1.54.09 3.13.09 4.73v18.93c0 1.36-.03 2.84-.09 4.45-.07 1.61.02 3.03.27 4.27.25.74.37 1.39.37 1.95s.31 1.03.93 1.39c.75.62 1.61.56 2.6-.18.99-.75 1.73-1.31 2.22-1.67.88-.62 1.68-1.21 2.42-1.77.73-.55 1.54-1.08 2.41-1.57 1.49-.99 3.13-1.73 4.92-2.23 1.79-.49 3.68-1.04 5.66-1.67.74-.25 1.51-.34 2.32-.28.8.07 1.57-.03 2.32-.28h1.86c.86-.24 1.78-.24 2.79 0h1.68c.85.25 1.69.38 2.5.38.8 0 1.57.12 2.32.37 1.36.25 2.69.5 3.99.75 1.3.24 2.56.67 3.8 1.3 1.23.61 2.44 1.2 3.61 1.76s2.25 1.21 3.25 1.95c.62.49 1.26.99 1.95 1.49.67.49 1.33 1.05 1.95 1.67l1.3 1.31c.99.99 1.89 1.95 2.69 2.87.81.93 1.58 1.95 2.32 3.06 1.12 1.74 2.1 3.5 2.97 5.29.87 1.8 1.73 3.75 2.61 5.85.48 1.12.85 2.26 1.1 3.43.25 1.18.5 2.32.75 3.44.37 1.23.59 2.46.66 3.7.06 1.24.27 2.54.64 3.9v2.41c.25.62.37 1.67.37 3.15 0 1.5-.06 2.6-.18 3.34v2.03zm-26.26-8.17c-.07-.62-.1-1.24-.1-1.87-.37-1.72-.68-3.39-.93-5-.25-1.61-.68-3.16-1.3-4.65-1.24-2.97-2.78-5.56-4.64-7.79-1.85-2.23-4.26-3.96-7.24-5.2-.99-.37-2-.65-3.06-.83-1.04-.19-2.07-.41-3.06-.66-.62-.12-1.41-.15-2.42-.09-.99.07-1.73.15-2.22.28-.49.12-.93.16-1.31.09-.36-.06-.8-.03-1.3.09-2.35.62-4.39 1.42-6.12 2.42-2.85 1.72-5.04 3.74-6.59 6.02-1.55 2.29-2.88 5.23-3.99 8.82-.25.75-.44 1.49-.56 2.23-.12.75-.25 1.49-.37 2.23-.13.48-.19 1.17-.19 2.03-.25.5-.37.99-.37 1.49v3.9c-.25.62-.25 1.3 0 2.05.12.61.12 1.26 0 1.95-.12.68-.07 1.26.19 1.76 0 1.12.06 1.92.18 2.42.25.99.44 2.01.56 3.06.12 1.05.3 2.07.56 3.06 1.11 3.46 2.56 6.61 4.35 9.46 1.8 2.84 4.3 4.95 7.52 6.31.74.38 1.52.65 2.32.84.8.18 1.64.4 2.5.65.49.12.94.18 1.3.18.38 0 .81.07 1.31.19h3.43c1.17 0 2.25-.12 3.24-.37 4.33-1.11 7.67-2.85 10.02-5.19 2.36-2.36 4.27-5.51 5.76-9.47.48-.99.86-2.08 1.11-3.24.25-1.18.49-2.39.74-3.62.25-.87.38-1.73.38-2.6 0-.87.12-1.68.37-2.41v-1.67c.12-.62.19-1.46.19-2.51 0-1.05-.07-1.89-.19-2.5.02-.63-.01-1.24-.07-1.86zM244.66 158.41l123.25-33.24s24.92-6.23 32.53 7.61c7.62 13.86 42.24 2.78 49.86 18 7.61 15.24-25.63 27.01-62.31 36.01-36.71 9.01-71.33 20.08-76.18 27.7-5.54-7.62-37.39-13.16-51.23-11.08-13.86 2.08-38.09 11.08-38.77 13.85-2.78-2.77-34.63-23.54-63.71-6.93-4.16-2.08-8.3-6.23-13.85-5.54 18-6.23 45.25-15.77 47.03-16.44 1.79-.66-5.88-2.8-12.48-5.13-6.92-10.73-3.35-11.58 6.91-15.39 8.47-3.35 16.06-6.24 16.06-6.24l-21.64-47.29s16.73-8.26 35.47 12.93c18.73 21.21 22.42 32.23 29.06 31.18zM497 92.59l3.35 16.62 16.61 3.34-16.61 3.34-3.35 16.62-3.33-16.62-16.62-3.34 16.62-3.34zM360.04 62.16l2.42 12.06 12.07 2.42-12.07 2.43-2.42 12.06-2.42-12.06-12.07-2.43 12.07-2.42zM446.95 36.23l1.51 7.51 7.5 1.51-7.5 1.51-1.51 7.5-1.5-7.5-7.51-1.51 7.51-1.51zM451.23 108.5l1.51 7.5 7.5 1.51-7.5 1.51-1.51 7.49-1.51-7.49-7.5-1.51 7.5-1.51z"/><path class="st0" d="M1132.05 229.32c9.28-.25 17.36.77 24.21 3.05 6.87 2.3 12.1 6.23 15.69 11.79.87 1.36 1.64 2.75 2.32 4.17.67 1.43 1.26 3.01 1.77 4.74.24.74.36 1.55.36 2.41 0 .87-.12 1.61-.36 2.23-.5.74-1.18 1.23-2.05 1.49-.62.25-1.36.37-2.23.37H1161c-.86 0-1.73.03-2.6.09-.87.07-1.67-.03-2.41-.28-1.24-.25-2.17-.75-2.78-1.48-.63-.75-1.18-1.52-1.68-2.32-.49-.81-.96-1.67-1.4-2.6-.44-.92-1.08-1.69-1.95-2.32-1.23-.99-2.44-1.73-3.61-2.23-1.18-.49-2.63-.93-4.36-1.31-.87-.24-2.14-.42-3.8-.55-1.68-.12-2.95-.06-3.81.19h-1.3c-.62.12-1.21.21-1.76.27-.57.07-1.15.16-1.77.28-2.11.62-3.8 1.46-5.11 2.5-1.3 1.06-2.19 2.63-2.69 4.74-.25.86-.25 1.67 0 2.41.25.75.49 1.36.74 1.86.87 1.49 1.88 2.66 3.06 3.53 1.17.86 2.57 1.6 4.18 2.23 2.34.98 4.91 1.82 7.7 2.5 2.78.68 5.63 1.3 8.53 1.85 2.91.56 5.76 1.19 8.54 1.86 2.78.69 5.41 1.52 7.88 2.51 1.12.49 2.19.89 3.25 1.2 1.04.32 2.07.78 3.05 1.4 2.36 1.49 4.49 3.1 6.41 4.83 1.91 1.73 3.43 3.89 4.54 6.49.37.87.68 1.73.93 2.6.25.87.5 1.81.74 2.78.12.75.22 1.89.29 3.43.07 1.55.03 2.76-.1 3.62v.93c-.25.75-.4 1.46-.46 2.13-.07.69-.15 1.34-.28 1.96-.87 3.7-2.23 6.98-4.08 9.82-1.98 2.97-4.4 5.39-7.24 7.24-2.85 1.86-6.06 3.47-9.65 4.82-1.36.62-2.82 1.05-4.36 1.3-1.55.25-3.06.56-4.55.94-1.12.24-2.26.4-3.43.46-1.18.07-2.32.21-3.43.46h-3.34c-.75.26-2.01.38-3.8.38-1.8 0-3.07-.12-3.81-.38-.37 0-.77-.02-1.21-.09-.44-.06-.89-.09-1.39-.09-1.49-.26-2.97-.44-4.45-.56-1.49-.12-2.91-.37-4.27-.74-4.83-1.36-9.1-2.94-12.8-4.74-3.71-1.79-6.87-4.48-9.47-8.07-1.73-2.35-3.22-5.08-4.45-8.16-.26-.75-.49-1.73-.74-2.97-.25-.62-.44-1.49-.56-2.6-.12-1.11-.07-2.04.19-2.78.37-.86.99-1.49 1.86-1.86.62-.25 1.36-.37 2.22-.37h14.47c.99 0 1.86.12 2.6.37 1.35.49 2.25 1.3 2.68 2.42.43 1.11.95 2.28 1.58 3.52.25.62.71 1.42 1.4 2.41.67.99 1.26 1.62 1.76 1.87 1.49 1.23 2.91 2.19 4.26 2.87 1.37.67 3.1 1.32 5.21 1.95.62.25 1.23.34 1.85.28.62-.07 1.24-.03 1.87.09.99.26 2.06.35 3.24.28 1.18-.06 2.2-.21 3.07-.47.62-.11 1.21-.18 1.76-.18.56 0 1.14-.12 1.76-.37 1.73-.62 3.31-1.36 4.73-2.23 1.42-.87 2.57-1.98 3.44-3.34.61-.99 1.11-2.54 1.48-4.64.25-.86.25-1.67 0-2.42-.25-.74-.5-1.36-.75-1.86-.86-1.73-1.95-3.03-3.24-3.89-1.3-.86-2.82-1.67-4.55-2.41-2.35-.99-4.82-1.79-7.42-2.41-2.6-.62-5.2-1.31-7.79-2.05-.99-.25-2.02-.44-3.06-.56-1.05-.12-2.07-.31-3.06-.55-3.96-1.12-7.74-2.2-11.33-3.26-3.58-1.04-6.86-2.62-9.83-4.72-3.46-2.48-6-5.82-7.61-10.03-.25-.86-.49-2.04-.74-3.52-.25-.85-.44-1.91-.57-3.15-.11-1.23-.06-2.35.19-3.34.25-.62.31-1.14.19-1.57-.12-.44-.07-.96.19-1.58.25-1.36.52-2.63.83-3.8.31-1.17.71-2.32 1.21-3.43 1.6-3.58 3.84-6.49 6.68-8.72 2.85-2.24 6.06-4.02 9.65-5.38 1.36-.62 2.78-1.08 4.28-1.39 1.48-.31 3.02-.65 4.63-1.03.74-.25 1.49-.4 2.23-.46.75-.06 1.48-.15 2.23-.29.98-.11 2.04-.18 3.15-.18 1.14-.01 2.19-.07 3.17-.19z"/></svg>