<?xml version="1.0" encoding="utf-8"?>
<!-- Generator: Adobe Illustrator 23.0.0, SVG Export Plug-In . SVG Version: 6.00 Build 0)  -->
<svg version="1.1" id="Capa_1" xmlns="http://www.w3.org/2000/svg" xmlns:xlink="http://www.w3.org/1999/xlink" x="0px" y="0px"
	 viewBox="0 0 1200 399.51" style="enable-background:new 0 0 1200 399.51;" xml:space="preserve">
<style type="text/css">
	.st0{fill:#ffffff;}
</style>
<g>
	<g>
		<g>
			<path class="st0" d="M71.99,192.57c24-0.37,40.51,6.74,49.54,21.34c1.23,1.99,2.19,4.03,2.88,6.13c0.67,2.1,1.33,4.39,1.95,6.87
				c0.25,0.99,0.34,2.14,0.27,3.43c-0.06,1.3-0.34,2.26-0.83,2.87c-0.62,0.75-1.49,1.21-2.6,1.4c-1.11,0.18-2.34,0.28-3.71,0.28
				h-11.68c-1.13,0-2.24,0-3.34,0c-1.12,0-2.05-0.13-2.78-0.38c-1.49-0.61-2.42-1.6-2.79-2.97c-0.36-1.36-0.86-2.72-1.48-4.08
				c-0.49-1.24-1.17-2.54-2.05-3.9c-0.86-1.36-1.78-2.41-2.78-3.15c-1.74-1.23-3.41-2.28-5.02-3.15c-1.49-0.62-3.31-1.14-5.47-1.58
				c-2.17-0.43-4.39-0.71-6.68-0.83c-2.28-0.12-4.54-0.07-6.77,0.18c-2.23,0.25-4.21,0.74-5.94,1.49c-2.85,1.23-5.04,2.69-6.6,4.35
				c-1.54,1.67-2.62,4.18-3.24,7.52c-0.25,0.86-0.31,1.82-0.18,2.87c0.12,1.05,0.3,1.89,0.56,2.5c0.99,2.6,2.37,4.43,4.17,5.48
				c1.79,1.04,3.93,2.07,6.41,3.05c1.36,0.62,2.74,1.08,4.17,1.4c1.42,0.31,2.87,0.71,4.35,1.21c3.34,1.11,6.79,2.07,10.31,2.87
				c3.53,0.81,7.01,1.7,10.48,2.69c0.62,0.25,1.24,0.37,1.86,0.37c0.61,0,1.23,0.13,1.85,0.38c2.47,0.86,5.04,1.67,7.7,2.41
				c2.66,0.75,5.04,1.8,7.14,3.15c3.34,2.11,6.23,4.21,8.63,6.32c2.41,2.1,4.67,4.83,6.78,8.16c0.61,0.99,1.13,2.1,1.57,3.34
				c0.44,1.25,0.89,2.48,1.4,3.72c0.12,0.37,0.19,0.71,0.19,1.02c0,0.31,0.06,0.59,0.19,0.84c0.49,1.98,0.73,4.45,0.73,7.42
				c0.25,0.62,0.25,1.24,0,1.86v3.34c-0.25,1.36-0.46,2.66-0.65,3.9c-0.19,1.24-0.46,2.47-0.83,3.71c-0.75,2.23-1.55,4.28-2.41,6.13
				c-0.87,1.86-1.92,3.66-3.15,5.38c-0.5,0.63-0.99,1.15-1.49,1.59c-0.49,0.43-0.93,0.95-1.3,1.57c-0.62,0.75-1.3,1.46-2.05,2.14
				c-0.74,0.68-1.54,1.34-2.41,1.95c-0.62,0.49-1.27,0.99-1.95,1.49c-0.68,0.48-1.39,0.99-2.13,1.48c-2.11,1.36-4.3,2.47-6.6,3.35
				c-2.28,0.85-4.66,1.72-7.15,2.59c-1.73,0.62-3.52,1.03-5.38,1.21c-1.85,0.19-3.71,0.46-5.57,0.84c-0.86,0.25-1.69,0.34-2.5,0.27
				c-0.8-0.06-1.57,0.03-2.32,0.28h-1.49c-0.25,0-0.58-0.03-1.02-0.09c-0.44-0.06-0.77-0.03-1.02,0.09
				c-0.62,0.12-1.68,0.19-3.16,0.19c-1.48,0-2.53-0.07-3.15-0.19h-1.86c-0.87-0.25-1.77-0.34-2.69-0.28
				c-0.93,0.07-1.77-0.03-2.5-0.27c-0.62,0-1.18-0.03-1.67-0.1c-0.5-0.07-1.06-0.15-1.68-0.28c-1.48-0.37-3.03-0.68-4.64-0.92
				c-1.61-0.25-3.1-0.62-4.45-1.12c-6.06-1.98-11.38-4.48-15.96-7.52c-4.58-3.02-8.42-7.01-11.51-11.97
				c-1.98-2.96-3.52-6.5-4.64-10.58c-0.25-0.74-0.4-1.48-0.46-2.23c-0.07-0.74-0.22-1.54-0.47-2.41c-0.25-0.99-0.44-2.19-0.56-3.62
				c-0.12-1.42,0.12-2.5,0.74-3.25c0.62-0.98,1.52-1.57,2.69-1.76c1.17-0.18,2.5-0.28,3.99-0.28h11.69c0.99,0,2.05,0,3.16,0
				c1.11,0,2.1,0.19,2.97,0.56c1.36,0.62,2.17,1.64,2.41,3.06c0.25,1.42,0.68,2.87,1.3,4.35c0.49,1.49,1.11,2.86,1.86,4.09
				c0.74,1.23,1.54,2.41,2.42,3.52c0.62,0.74,1.3,1.43,2.04,2.04c0.74,0.62,1.49,1.18,2.23,1.68c2.72,1.73,6.05,3.15,10.02,4.27
				c0.86,0.25,1.69,0.37,2.5,0.37c0.8,0,1.7,0.12,2.69,0.37h0.93c0.99,0.25,2.35,0.37,4.08,0.37c1.73,0,3.09-0.12,4.09-0.37
				c0.36-0.12,0.99-0.19,1.86-0.19c0.61-0.12,1.26-0.21,1.95-0.28c0.67-0.06,1.32-0.21,1.95-0.46c4.21-1.11,7.54-2.6,10.02-4.45
				c2.47-1.86,4.2-4.94,5.2-9.28c0.24-0.86,0.28-1.86,0.09-2.97c-0.19-1.11-0.4-1.97-0.65-2.6c-1.24-3.34-3.34-5.93-6.31-7.79
				c-0.38-0.25-1.05-0.62-2.05-1.12c-1.86-1.11-3.93-2-6.22-2.68c-2.29-0.67-4.54-1.39-6.78-2.14c-0.86-0.24-1.7-0.47-2.5-0.65
				c-0.81-0.19-1.7-0.4-2.69-0.65c-1.98-0.62-3.99-1.14-6.04-1.58c-2.04-0.44-3.98-0.95-5.85-1.58c-0.62-0.25-1.11-0.38-1.48-0.38
				s-0.81-0.11-1.3-0.36c-0.99-0.25-1.89-0.49-2.69-0.75c-0.81-0.25-1.7-0.49-2.69-0.74c-2.84-0.99-5.57-2.01-8.16-3.06
				c-2.6-1.05-5.01-2.26-7.24-3.62c-2.85-1.85-5.44-4.02-7.79-6.49c-2.35-2.48-4.21-5.32-5.57-8.54c-0.49-1.11-0.86-2.25-1.11-3.43
				c-0.26-1.17-0.56-2.44-0.93-3.8c-0.26-1.12-0.44-2.73-0.56-4.82c-0.12-2.1-0.07-3.84,0.18-5.2c0.12-0.49,0.19-1.23,0.19-2.23
				c0.37-1.36,0.68-2.66,0.93-3.89c0.25-1.24,0.62-2.48,1.12-3.72c1.85-4.32,4.23-8.01,7.15-11.04c2.9-3.03,6.28-5.78,10.11-8.26
				c2.47-1.48,5.13-2.65,7.97-3.52c2.85-0.86,5.88-1.68,9.1-2.42c1.23-0.25,2.44-0.39,3.61-0.46c1.18-0.06,2.38-0.21,3.62-0.47
				c0.37-0.12,0.95-0.12,1.77,0C71.21,192.88,71.74,192.82,71.99,192.57z"/>
			<path class="st0" d="M226.9,278.68c0.12,0.74,0.19,1.86,0.19,3.34c0,1.49-0.13,2.53-0.38,3.15v2.41
				c-0.37,1.36-0.58,2.67-0.65,3.9c-0.06,1.24-0.28,2.47-0.65,3.71c-0.25,1.11-0.5,2.26-0.74,3.43c-0.25,1.17-0.62,2.32-1.12,3.43
				c-0.86,2.1-1.73,4.05-2.6,5.84c-0.87,1.8-1.86,3.56-2.97,5.3c-0.75,1.11-1.52,2.13-2.32,3.06c-0.81,0.92-1.7,1.88-2.68,2.87
				l-1.3,1.3c-0.63,0.62-1.27,1.17-1.95,1.67c-0.68,0.49-1.33,0.99-1.95,1.49c-0.99,0.74-2.08,1.39-3.24,1.95
				c-1.18,0.56-2.38,1.15-3.63,1.77c-1.23,0.62-2.5,1.05-3.8,1.3c-1.3,0.25-2.63,0.49-3.98,0.74c-0.74,0.25-1.52,0.37-2.32,0.37
				c-0.8,0-1.63,0.13-2.5,0.38h-1.67c-0.99,0.25-1.92,0.25-2.78,0h-1.86c-0.74-0.25-1.51-0.34-2.32-0.29
				c-0.8,0.07-1.57-0.03-2.32-0.27c-1.98-0.62-3.87-1.17-5.66-1.68c-1.8-0.49-3.43-1.23-4.91-2.22c-0.87-0.5-1.68-1.03-2.42-1.58
				c-0.73-0.56-1.54-1.14-2.41-1.76c-0.5-0.37-1.25-0.93-2.23-1.67c-0.99-0.75-1.86-0.81-2.6-0.19c-0.62,0.37-0.93,0.83-0.93,1.39
				s-0.12,1.21-0.37,1.95c-0.25,1.23-0.34,2.66-0.28,4.26c0.06,1.61,0.1,3.09,0.1,4.45v18.93c0,1.61-0.04,3.19-0.1,4.74
				c-0.07,1.54-0.4,2.81-1.02,3.79c-0.37,0.49-1.05,0.87-2.04,1.12c-1,0.25-2.11,0.4-3.34,0.47c-1.24,0.06-2.48,0.06-3.71,0
				c-1.24-0.07-2.29-0.1-3.15-0.1h-5.01c-0.38,0-0.8,0-1.3,0c-0.5,0-0.94-0.07-1.3-0.19h-1.49c-2.11-0.62-3.22-1.82-3.34-3.61
				c-0.12-1.8-0.18-3.93-0.18-6.4V242.3c0-1.35-0.04-2.81-0.1-4.35c-0.07-1.55,0.21-2.76,0.83-3.63c0.5-0.86,1.18-1.41,2.05-1.67
				c0.62-0.24,1.4-0.37,2.32-0.37c0.93,0,1.82,0,2.69,0h8.9c1.25,0,2.42,0,3.53,0s2.05,0.31,2.78,0.93c0.86,0.62,1.32,1.4,1.39,2.32
				c0.07,0.94,0.34,1.89,0.84,2.88c0.12,0.37,0.28,0.65,0.46,0.84c0.19,0.18,0.41,0.39,0.65,0.65c1.36,0.12,2.48-0.26,3.34-1.12
				c0.87-0.86,1.73-1.6,2.6-2.23c1.61-1.12,3.28-2.13,5.01-3.06c1.72-0.93,3.65-1.7,5.75-2.32c0.98-0.36,2.07-0.62,3.24-0.74
				c1.18-0.12,2.32-0.3,3.44-0.56c0.49-0.12,1.02-0.12,1.58,0c0.56,0.13,1.02,0.07,1.39-0.19c7.05-0.24,13.02,0.71,17.9,2.88
				c4.89,2.17,9.07,4.98,12.53,8.44c0.62,0.62,1.17,1.21,1.67,1.77c0.5,0.55,0.99,1.14,1.49,1.76c0.86,1.12,1.63,2.23,2.31,3.34
				c0.68,1.11,1.33,2.23,1.95,3.34c0.25,0.26,0.41,0.56,0.47,0.93c0.06,0.37,0.21,0.8,0.47,1.3c0.74,1.24,1.41,2.73,2.04,4.46
				c0.25,0.73,0.49,1.5,0.75,2.31c0.25,0.81,0.49,1.64,0.74,2.51c0.49,1.49,0.84,3.03,1.02,4.63c0.18,1.62,0.47,3.29,0.84,5.02
				c0,0.62,0.02,1.3,0.09,2.04c0.07,0.75,0.16,1.49,0.28,2.23V278.68z M200.73,282.95c0.11-0.62,0.18-1.45,0.18-2.51
				c0-1.04-0.07-1.88-0.18-2.5v-1.67c-0.25-0.74-0.37-1.55-0.37-2.41c0-0.87-0.12-1.73-0.37-2.6c-0.25-1.23-0.5-2.44-0.75-3.62
				c-0.25-1.17-0.62-2.25-1.11-3.24c-1.49-3.96-3.41-7.11-5.75-9.46c-2.36-2.35-5.7-4.09-10.03-5.2c-0.99-0.25-2.07-0.37-3.24-0.37
				c-1.18,0-2.32,0-3.43,0c-0.5,0.12-0.93,0.18-1.3,0.18c-0.38,0-0.81,0.07-1.3,0.19c-0.88,0.26-1.71,0.46-2.5,0.65
				c-0.81,0.19-1.59,0.46-2.32,0.84c-3.22,1.36-5.72,3.47-7.52,6.31c-1.8,2.85-3.25,6-4.36,9.46c-0.25,0.99-0.43,2.01-0.56,3.06
				c-0.12,1.05-0.3,2.08-0.56,3.06c-0.12,0.49-0.18,1.3-0.18,2.41c-0.25,0.49-0.31,1.08-0.19,1.76c0.12,0.69,0.12,1.34,0,1.95
				c-0.25,0.75-0.25,1.43,0,2.05v2.23c0,0.61,0,1.18,0,1.67c0,0.49,0.12,0.99,0.37,1.49c0,0.86,0.07,1.54,0.2,2.04
				c0.11,0.74,0.24,1.49,0.36,2.23c0.12,0.75,0.3,1.49,0.56,2.23c1.11,3.59,2.44,6.53,3.99,8.82c1.54,2.28,3.74,4.3,6.59,6.03
				c1.72,0.99,3.77,1.79,6.13,2.42c0.48,0.12,0.92,0.15,1.3,0.09c0.37-0.07,0.8-0.02,1.3,0.09c0.49,0.12,1.23,0.21,2.23,0.28
				c0.99,0.07,1.8,0.03,2.42-0.09c0.99-0.25,2-0.46,3.06-0.65c1.04-0.19,2.06-0.47,3.06-0.84c2.97-1.24,5.39-2.96,7.24-5.2
				c1.86-2.23,3.4-4.82,4.63-7.79c0.62-1.48,1.05-3.02,1.3-4.63c0.25-1.61,0.57-3.28,0.94-5.01c0-0.62,0.03-1.24,0.09-1.86
				C200.7,284.18,200.73,283.57,200.73,282.95z"/>
			<path class="st0" d="M314.64,320.25c0.25,1.36,0.4,2.72,0.46,4.08c0.07,1.36-0.58,2.29-1.95,2.79c-0.75,0.36-1.61,0.55-2.6,0.55
				c-0.99,0-1.98,0-2.97,0h-10.01c-1.13,0-2.2-0.02-3.26-0.09c-1.04-0.07-1.88-0.34-2.5-0.84c-0.87-0.49-1.52-1.21-1.95-2.14
				c-0.44-0.93-1.02-1.7-1.76-2.32c-0.25-0.25-0.56-0.47-0.93-0.65c-0.38-0.19-0.86-0.21-1.49-0.1c-0.62,0.25-1.21,0.56-1.76,0.93
				c-0.56,0.37-1.15,0.68-1.77,0.93c-0.62,0.5-1.3,0.93-2.04,1.3c-0.75,0.38-1.49,0.76-2.23,1.12c-1.61,0.74-3.28,1.33-5.01,1.77
				c-1.73,0.43-3.52,0.89-5.39,1.39c-0.86,0.25-1.7,0.4-2.5,0.47c-0.81,0.07-1.64,0.15-2.51,0.27c-0.37,0-0.75,0.03-1.12,0.09
				c-0.37,0.07-0.74,0.1-1.12,0.1h-2.04c-1.24,0.25-2.47,0.25-3.71,0h-1.67c-0.87-0.25-1.7-0.34-2.5-0.28
				c-0.81,0.07-1.58-0.03-2.32-0.28c-1.24-0.25-2.42-0.46-3.52-0.65c-1.12-0.18-2.17-0.53-3.15-1.02c-3.59-1.36-6.65-3.12-9.19-5.29
				c-2.53-2.17-4.54-5.03-6.03-8.63c-0.37-0.86-0.71-1.79-1.02-2.78c-0.3-0.99-0.59-2.05-0.84-3.16c-0.25-0.62-0.34-1.23-0.28-1.85
				c0.07-0.62,0.03-1.24-0.09-1.86c-0.12-0.37-0.22-1.14-0.28-2.32c-0.07-1.18-0.03-2.01,0.1-2.51c0.25-1.23,0.37-2.29,0.37-3.15
				c0.36-1.36,0.74-2.76,1.11-4.17c0.38-1.42,0.86-2.7,1.49-3.81c2.1-3.59,4.52-6.31,7.24-8.16c2.73-1.86,6.19-3.47,10.4-4.82
				c1.6-0.63,3.27-1.05,5.01-1.3c1.73-0.25,3.46-0.56,5.19-0.94c0.99-0.24,2.04-0.39,3.16-0.46c1.11-0.07,2.22-0.21,3.34-0.46
				c0.86-0.26,1.72-0.34,2.6-0.28c0.86,0.07,1.8-0.03,2.78-0.29c0.87-0.25,1.73-0.36,2.6-0.36c0.87,0,1.79-0.12,2.79-0.37
				c2.6-0.62,4.97-1.15,7.14-1.58c2.17-0.43,4.11-1.51,5.86-3.24c1.11-1.12,1.85-2.35,2.22-3.71c0.12-0.38,0.16-0.68,0.1-0.93
				c-0.07-0.25-0.04-0.49,0.09-0.74c0.12-0.26,0.18-0.62,0.18-1.12c0-0.49,0-0.87,0-1.11c-0.12-0.49-0.21-0.99-0.27-1.5
				c-0.07-0.48-0.16-0.92-0.29-1.3c-1.23-3.7-3.83-6.24-7.79-7.6c-1.11-0.37-2.44-0.65-3.98-0.84c-1.55-0.18-3.12-0.25-4.73-0.18
				c-1.61,0.06-3.15,0.21-4.64,0.46c-1.49,0.25-2.78,0.56-3.9,0.94c-0.74,0.25-1.45,0.58-2.13,1.02c-0.69,0.43-1.34,0.89-1.95,1.39
				c-0.62,0.5-1.27,1.18-1.95,2.04c-0.68,0.87-1.14,1.68-1.39,2.42c-0.62,1.24-1.15,2.41-1.58,3.52c-0.44,1.13-1.33,1.87-2.69,2.23
				c-0.99,0.25-2.04,0.37-3.15,0.37c-1.11,0-2.22,0-3.33,0h-7.06c-0.62,0-1.23,0.03-1.85,0.09c-0.63,0.07-1.18,0.04-1.68-0.09h-1.67
				c-0.25-0.12-0.56-0.19-0.93-0.19c-0.37,0-0.68-0.12-0.93-0.37c-0.99-0.25-1.68-1.05-2.05-2.41c-0.12-0.63-0.12-1.24,0-1.86
				c0.12-0.62,0.25-1.18,0.37-1.68c0.38-1.36,0.77-2.63,1.21-3.8c0.44-1.17,0.96-2.26,1.58-3.25c0.38-0.62,0.75-1.23,1.12-1.86
				c0.37-0.61,0.74-1.23,1.11-1.86c0.99-1.36,2.23-2.65,3.71-3.89c0.26-0.11,0.62-0.44,1.12-0.93c0.62-0.49,1.17-0.93,1.67-1.3
				s1.05-0.74,1.68-1.12c2.1-1.36,4.33-2.44,6.68-3.24c2.35-0.8,4.76-1.58,7.24-2.32c1.49-0.36,3.03-0.62,4.64-0.74
				c1.6-0.12,3.21-0.37,4.82-0.75c0.49-0.11,1.27-0.11,2.32,0c1.05,0.13,1.7,0.07,1.95-0.18c5.08-0.11,9.93,0.07,14.57,0.56
				c4.64,0.49,8.85,1.42,12.62,2.78c3.78,1.36,7.02,3.19,9.75,5.47c2.72,2.29,4.82,5.23,6.31,8.81c0.86,2.11,1.36,4.52,1.49,7.24
				c0.12,2.72,0.19,5.5,0.19,8.35v41.38c0,2.36,0,4.74,0,7.15c0,2.41,0.25,4.61,0.73,6.58c0.12,0.37,0.19,0.77,0.19,1.21
				C314.45,319.47,314.52,319.88,314.64,320.25z M287.36,291.67c0.12-0.62,0.19-1.33,0.19-2.14c0-0.8-0.07-1.51-0.19-2.14
				c-0.25-0.73-0.37-1.42-0.37-2.03c0-0.62-0.25-1.12-0.74-1.49c-0.63-0.49-1.54-0.75-2.79-0.75c-0.49,0.13-0.93,0.21-1.3,0.28
				c-0.37,0.06-0.81,0.16-1.3,0.28c-0.87,0.25-1.8,0.43-2.78,0.56c-0.99,0.12-1.99,0.3-2.97,0.55c-0.37,0.13-0.93,0.19-1.67,0.19
				c-1.61,0.38-3.22,0.62-4.83,0.74c-1.6,0.13-3.15,0.44-4.63,0.94c-1,0.25-1.92,0.46-2.79,0.65c-0.86,0.18-1.73,0.46-2.6,0.83
				c-2.6,1.11-4.8,2.79-6.59,5.01c-1.79,2.23-2.44,5.32-1.95,9.28c0.25,2.1,0.94,3.85,2.05,5.2c0.87,1.36,2.17,2.45,3.9,3.24
				c1.73,0.81,3.62,1.39,5.66,1.77c2.04,0.37,4.21,0.46,6.5,0.28c2.28-0.19,4.42-0.59,6.4-1.21c3.22-0.99,5.76-2.57,7.61-4.73
				c1.85-2.17,3.28-4.86,4.27-8.07c0.24-0.86,0.39-1.77,0.46-2.69c0.07-0.93,0.21-1.89,0.46-2.87V291.67z"/>
			<path class="st0" d="M360.08,229.32c10.03-0.25,18.41,1.23,25.15,4.45c6.74,3.22,12.09,7.79,16.05,13.73
				c1.98,2.97,3.47,6.37,4.46,10.21c0.24,0.62,0.47,1.42,0.65,2.41c0.18,0.99,0.15,1.86-0.1,2.6c-0.49,1.36-1.36,2.14-2.6,2.32
				c-1.23,0.19-2.72,0.28-4.45,0.28h-9.65c-1.12,0-2.26,0-3.43,0s-2.14-0.25-2.87-0.74c-0.99-0.49-1.67-1.26-2.05-2.32
				c-0.37-1.05-0.87-2.14-1.48-3.24c-0.75-1.36-1.55-2.6-2.41-3.72c-0.86-1.11-1.87-2.09-2.97-2.97c-1.73-1.11-3.66-1.98-5.75-2.6
				c-0.75-0.25-1.49-0.37-2.23-0.37c-0.75,0-1.43-0.12-2.05-0.38h-1.86c-2.48,0-4.46,0.25-5.94,0.75c-3.59,1.11-6.5,2.82-8.72,5.1
				c-2.23,2.29-4.03,5.04-5.38,8.26c-0.62,1.36-1.09,2.81-1.4,4.35c-0.3,1.55-0.65,3.19-1.02,4.93c-0.11,0.49-0.18,0.99-0.18,1.49
				c0,0.49-0.07,0.99-0.19,1.48c-0.25,1.24-0.34,2.97-0.28,5.2c0.06,2.23,0.21,3.96,0.47,5.19c0,1,0.07,1.67,0.18,2.05
				c0.25,0.87,0.4,1.73,0.47,2.6c0.06,0.86,0.21,1.73,0.46,2.6c0.99,2.84,2.17,5.44,3.53,7.79c1.36,2.35,3.09,4.33,5.19,5.93
				c0.49,0.38,1.24,0.81,2.23,1.31c1.36,0.86,2.75,1.43,4.18,1.67c1.42,0.25,3.18,0.5,5.28,0.75c0.26,0,0.63,0,1.12,0
				c0.49,0,0.86-0.07,1.12-0.19h1.67c0.86-0.25,1.7-0.47,2.5-0.65c0.81-0.19,1.58-0.4,2.32-0.65c3.7-1.61,6.55-3.96,8.52-7.06
				c0.5-0.62,0.94-1.32,1.32-2.13c0.36-0.8,0.66-1.5,0.92-2.14c0.49-1.35,0.93-2.56,1.3-3.61c0.37-1.05,1.24-1.89,2.6-2.5
				c1.11-0.49,2.91-0.71,5.37-0.65c2.48,0.07,4.52,0.09,6.13,0.09c0.87,0,1.76-0.03,2.69-0.09c0.93-0.06,1.7,0.03,2.32,0.28h1.49
				c0.49,0.12,0.99,0.21,1.49,0.27c0.49,0.07,0.86,0.23,1.12,0.47c0.61,0.49,1.02,1.21,1.2,2.14c0.19,0.93,0.15,1.89-0.09,2.87
				c-1.11,4.08-2.47,7.74-4.08,10.95c-5.07,9.54-13.17,16.15-24.31,19.86c-1.23,0.37-2.54,0.65-3.89,0.84
				c-1.37,0.18-2.73,0.46-4.08,0.83c-0.75,0.12-1.49,0.19-2.23,0.19c-0.74,0-1.48,0.06-2.23,0.18h-2.04
				c-0.62,0.26-1.55,0.34-2.79,0.28c-1.24-0.07-2.17-0.15-2.79-0.28c-0.99-0.25-1.88-0.34-2.69-0.27c-0.8,0.07-1.63-0.04-2.5-0.28
				c-0.62-0.13-1.24-0.22-1.86-0.28c-0.62-0.07-1.24-0.16-1.85-0.28c-1.36-0.37-2.67-0.75-3.91-1.12c-1.23-0.36-2.41-0.8-3.52-1.3
				c-5.81-2.47-10.7-5.66-14.65-9.55c-3.97-3.9-7.19-8.76-9.65-14.57c-0.62-1.12-1.12-2.32-1.49-3.62c-0.37-1.3-0.75-2.63-1.12-3.99
				c-0.12-0.49-0.19-0.95-0.19-1.39c0-0.43-0.12-0.96-0.36-1.58c-0.25-0.87-0.37-1.77-0.37-2.69c0-0.92-0.13-1.81-0.38-2.69v-3.15
				c-0.25-0.62-0.37-1.33-0.37-2.13c0-0.81,0.12-1.52,0.37-2.14c0.12-0.62,0.12-1.17,0-1.67c-0.12-0.5-0.12-0.99,0-1.49
				c0.25-0.87,0.34-1.67,0.28-2.41c-0.07-0.74,0.03-1.49,0.28-2.23c0.62-2.23,1.11-4.36,1.49-6.41c0.37-2.05,0.92-4.05,1.67-6.03
				c2.72-6.31,6.15-11.56,10.3-15.78c4.14-4.2,9.43-7.6,15.86-10.2c1.73-0.75,3.53-1.26,5.39-1.58c1.86-0.31,3.78-0.71,5.75-1.22
				c0.99-0.11,1.92-0.18,2.79-0.18C358.16,229.5,359.1,229.44,360.08,229.32z"/>
			<path class="st0" d="M498.62,278.87c0.25,0.99,0.25,2.09,0,3.34c-0.25,1.23-0.68,2.04-1.3,2.41c-0.62,0.49-1.52,0.84-2.69,1.02
				c-1.18,0.19-2.47,0.31-3.9,0.38c-1.43,0.07-2.85,0.07-4.27,0c-1.42-0.07-2.69-0.1-3.8-0.1h-45.28c-0.86,0-1.7,0-2.51,0
				c-0.8,0-1.5,0.12-2.13,0.37c-0.99,0.5-1.61,0.99-1.86,1.49c-0.26,0.25-0.49,0.71-0.74,1.4c-0.25,0.67-0.31,1.32-0.19,1.95
				c0.25,0.74,0.4,1.45,0.46,2.13c0.07,0.69,0.21,1.4,0.47,2.13c0.99,2.97,2.19,5.41,3.62,7.33c1.42,1.93,3.37,3.63,5.84,5.11
				c0.99,0.62,2.02,1.03,3.06,1.21c1.05,0.18,2.14,0.47,3.24,0.83c0.99,0.25,2.36,0.44,4.09,0.57c1.73,0.12,3.22,0.07,4.45-0.19
				h1.67c1.23-0.25,2.38-0.52,3.43-0.84c1.05-0.3,2.08-0.65,3.06-1.02c1.23-0.62,2.63-1.42,4.18-2.41c1.54-0.99,2.69-1.98,3.42-2.97
				c0.62-0.87,1.27-1.7,1.95-2.5c0.67-0.8,1.51-1.4,2.5-1.77c1.23-0.62,2.81-0.89,4.73-0.84c1.92,0.07,3.68,0.1,5.29,0.1
				c0.75,0,1.51-0.03,2.32-0.1c0.81-0.06,1.52,0.04,2.14,0.29h1.86c1.24,0.24,2.1,0.55,2.6,0.92c0.48,0.25,0.77,0.81,0.83,1.68
				c0.07,0.86-0.03,1.6-0.28,2.23c-0.62,1.73-1.3,3.29-2.04,4.64c-0.75,1.36-1.61,2.72-2.6,4.08c-2.72,4.08-5.81,7.37-9.27,9.83
				c-3.47,2.48-7.79,4.57-12.99,6.31c-1.36,0.5-2.72,0.81-4.08,0.94c-1.36,0.12-2.78,0.37-4.27,0.74c-0.49,0.12-1.02,0.16-1.58,0.09
				c-0.56-0.06-1.08-0.03-1.58,0.09h-2.04c-0.62,0.26-1.33,0.34-2.13,0.28c-0.81-0.07-1.52-0.15-2.14-0.28
				c-0.99-0.12-1.86-0.12-2.6,0c-0.75,0.13-1.55,0.07-2.41-0.18c-0.62-0.26-1.3-0.37-2.04-0.37c-0.75,0-1.43-0.13-2.05-0.37
				c-1.36-0.25-2.72-0.53-4.09-0.84c-1.35-0.3-2.6-0.77-3.7-1.4c-1.36-0.49-2.63-0.96-3.8-1.4c-1.18-0.42-2.26-0.95-3.25-1.57
				c-3.96-2.48-7.48-5.35-10.57-8.63c-3.1-3.27-5.64-7.08-7.61-11.41c-0.62-1.36-1.12-2.76-1.49-4.18
				c-0.37-1.42-0.87-2.87-1.49-4.35c-0.12-0.5-0.18-0.96-0.18-1.4c0-0.43-0.07-0.89-0.18-1.39c-0.5-1.49-0.81-3.09-0.94-4.83
				c-0.12-1.72-0.25-3.46-0.37-5.18c0-0.62-0.03-1.31-0.09-2.05c-0.07-0.75-0.03-1.42,0.09-2.05v-2.23l0.56-4.46
				c0.49-2.09,0.93-4.14,1.3-6.12c0.37-1.98,0.93-3.84,1.67-5.56c5.32-12.87,14.35-21.96,27.1-27.28c1.73-0.75,3.5-1.26,5.29-1.58
				c1.79-0.31,3.68-0.71,5.66-1.22c0.99-0.11,1.91-0.18,2.79-0.18c0.85,0,1.79-0.06,2.78-0.18c6.31-0.12,11.72,0.59,16.24,2.13
				c4.52,1.54,8.57,3.56,12.16,6.03c1.12,0.74,2.23,1.58,3.34,2.5c1.12,0.94,2.1,1.9,2.97,2.88c0.37,0.62,0.87,1.11,1.49,1.49
				c0.99,1.36,1.92,2.75,2.79,4.17c0.85,1.42,1.79,2.88,2.78,4.36c0.62,1.12,1.14,2.26,1.58,3.43c0.43,1.18,0.89,2.44,1.4,3.8
				c0.62,1.61,1.11,3.28,1.48,5.01c0.38,1.73,0.8,3.47,1.3,5.2c0.25,0.99,0.34,2.07,0.29,3.24c-0.07,1.18,0.03,2.27,0.27,3.25
				V278.87z M470.79,267.92c0.86-1.25,0.95-2.75,0.28-4.55c-0.68-1.79-1.21-3.13-1.58-3.99c-1.74-3.34-4.02-5.91-6.87-7.7
				c-2.85-1.79-6.81-2.75-11.88-2.87c-0.38,0.25-0.81,0.31-1.3,0.18c-0.5-0.11-0.93-0.11-1.31,0c-0.62,0.25-1.3,0.41-2.04,0.47
				c-0.75,0.07-1.42,0.21-2.05,0.47c-5.45,1.73-9.46,5.13-12.06,10.2c-0.26,0.5-0.53,1.15-0.83,1.95c-0.31,0.81-0.54,1.61-0.66,2.41
				c-0.12,0.81-0.1,1.58,0.09,2.32c0.19,0.75,0.58,1.36,1.21,1.86c0.99,0.62,2.35,0.92,4.08,0.92c1.73,0,3.4,0,5.01,0h20.6
				c1.73,0,3.56-0.02,5.48-0.09C468.9,269.43,470.17,268.91,470.79,267.92z"/>
			<path class="st0" d="M535.31,229.32c9.28-0.25,17.35,0.77,24.22,3.05c6.87,2.3,12.09,6.23,15.68,11.79
				c0.87,1.36,1.64,2.75,2.32,4.17c0.67,1.43,1.26,3.01,1.77,4.74c0.24,0.74,0.36,1.55,0.36,2.41c0,0.87-0.12,1.61-0.36,2.23
				c-0.5,0.74-1.19,1.23-2.05,1.49c-0.62,0.25-1.36,0.37-2.23,0.37c-0.87,0-1.74,0-2.6,0h-8.17c-0.86,0-1.73,0.03-2.6,0.09
				c-0.87,0.07-1.67-0.03-2.42-0.28c-1.24-0.25-2.17-0.75-2.78-1.48c-0.62-0.75-1.17-1.52-1.67-2.32c-0.49-0.81-0.96-1.67-1.4-2.6
				c-0.43-0.92-1.08-1.69-1.95-2.32c-1.23-0.99-2.45-1.73-3.61-2.23c-1.18-0.49-2.64-0.93-4.36-1.31c-0.87-0.24-2.13-0.42-3.8-0.55
				c-1.68-0.12-2.95-0.06-3.8,0.19h-1.31c-0.62,0.12-1.2,0.21-1.76,0.27c-0.57,0.07-1.16,0.16-1.76,0.28
				c-2.11,0.62-3.8,1.46-5.11,2.5c-1.3,1.06-2.2,2.63-2.69,4.74c-0.25,0.86-0.25,1.67,0,2.41c0.24,0.75,0.48,1.36,0.74,1.86
				c0.87,1.49,1.88,2.66,3.06,3.53c1.17,0.86,2.57,1.6,4.18,2.23c2.34,0.98,4.91,1.82,7.7,2.5c2.78,0.68,5.63,1.3,8.53,1.85
				c2.91,0.56,5.76,1.19,8.54,1.86c2.79,0.69,5.41,1.52,7.89,2.51c1.11,0.49,2.19,0.89,3.25,1.2c1.04,0.32,2.07,0.78,3.05,1.4
				c2.35,1.49,4.48,3.1,6.41,4.83c1.92,1.73,3.43,3.89,4.54,6.49c0.37,0.87,0.68,1.73,0.93,2.6c0.25,0.87,0.5,1.81,0.74,2.78
				c0.12,0.75,0.22,1.89,0.29,3.43c0.07,1.55,0.03,2.76-0.1,3.62v0.93c-0.25,0.75-0.4,1.46-0.46,2.13
				c-0.07,0.69-0.16,1.34-0.28,1.96c-0.87,3.7-2.23,6.98-4.09,9.82c-1.97,2.97-4.39,5.39-7.23,7.24c-2.85,1.86-6.07,3.47-9.65,4.82
				c-1.36,0.62-2.82,1.05-4.37,1.3c-1.54,0.25-3.06,0.56-4.55,0.94c-1.11,0.24-2.25,0.4-3.42,0.46c-1.17,0.07-2.32,0.21-3.43,0.46
				h-3.34c-0.74,0.26-2.01,0.38-3.8,0.38c-1.79,0-3.06-0.12-3.8-0.38c-0.37,0-0.78-0.02-1.2-0.09c-0.44-0.06-0.9-0.09-1.4-0.09
				c-1.49-0.26-2.97-0.44-4.46-0.56c-1.48-0.12-2.9-0.37-4.26-0.74c-4.82-1.36-9.09-2.94-12.8-4.74c-3.71-1.79-6.87-4.48-9.47-8.07
				c-1.73-2.35-3.22-5.08-4.45-8.16c-0.25-0.75-0.49-1.73-0.74-2.97c-0.25-0.62-0.44-1.49-0.56-2.6c-0.13-1.11-0.07-2.04,0.18-2.78
				c0.38-0.86,0.99-1.49,1.86-1.86c0.61-0.25,1.36-0.37,2.22-0.37c0.87,0,1.8,0,2.79,0H511c0.99,0,1.98,0,2.97,0
				c0.99,0,1.86,0.12,2.6,0.37c1.36,0.49,2.26,1.3,2.69,2.42c0.43,1.11,0.95,2.28,1.58,3.52c0.25,0.62,0.71,1.42,1.4,2.41
				c0.67,0.99,1.26,1.62,1.76,1.87c1.49,1.23,2.91,2.19,4.26,2.87c1.37,0.67,3.1,1.32,5.2,1.95c0.62,0.25,1.24,0.34,1.86,0.28
				c0.62-0.07,1.24-0.03,1.86,0.09c0.99,0.26,2.07,0.35,3.24,0.28c1.18-0.06,2.2-0.21,3.07-0.47c0.62-0.11,1.21-0.18,1.76-0.18
				c0.56,0,1.14-0.12,1.77-0.37c1.73-0.62,3.3-1.36,4.73-2.23c1.42-0.87,2.57-1.98,3.43-3.34c0.62-0.99,1.12-2.54,1.49-4.64
				c0.25-0.86,0.25-1.67,0-2.42c-0.25-0.74-0.5-1.36-0.75-1.86c-0.86-1.73-1.95-3.03-3.24-3.89c-1.3-0.86-2.82-1.67-4.55-2.41
				c-2.35-0.99-4.82-1.79-7.42-2.41c-2.6-0.62-5.2-1.31-7.79-2.05c-0.99-0.25-2.02-0.44-3.06-0.56c-1.05-0.12-2.07-0.31-3.06-0.55
				c-3.96-1.12-7.74-2.2-11.33-3.26c-3.58-1.04-6.86-2.62-9.83-4.72c-3.46-2.48-6-5.82-7.6-10.03c-0.25-0.86-0.49-2.04-0.74-3.52
				c-0.25-0.85-0.44-1.91-0.56-3.15c-0.13-1.23-0.07-2.35,0.18-3.34c0.25-0.62,0.31-1.14,0.19-1.57c-0.12-0.44-0.07-0.96,0.19-1.58
				c0.25-1.36,0.52-2.63,0.83-3.8c0.31-1.17,0.71-2.32,1.21-3.43c1.61-3.58,3.84-6.49,6.68-8.72c2.85-2.24,6.07-4.02,9.65-5.38
				c1.36-0.62,2.79-1.08,4.27-1.39c1.49-0.31,3.03-0.65,4.64-1.03c0.74-0.25,1.49-0.4,2.23-0.46c0.74-0.06,1.48-0.15,2.23-0.29
				c0.99-0.11,2.05-0.18,3.15-0.18C533.27,229.5,534.33,229.44,535.31,229.32z"/>
			<path class="st0" d="M588,195.55h12.62c1.24,0,2.44,0,3.62,0c1.17,0,2.14,0.3,2.87,0.92c0.86,0.5,1.43,1.55,1.67,3.15
				c0,0.62,0.03,1.21,0.1,1.77c0.06,0.56,0.09,1.14,0.09,1.77v6.69v21.33c0,0.87-0.03,1.86-0.09,2.98
				c-0.07,1.11-0.04,2.19,0.09,3.24c0.11,1.05,0.4,1.93,0.84,2.6c0.43,0.69,1.07,1.03,1.95,1.03c0.24-0.25,0.49-0.37,0.74-0.37
				c0.25,0,0.5-0.12,0.75-0.37c0.86-0.62,1.67-1.33,2.41-2.13c0.75-0.81,1.61-1.51,2.6-2.14c1.36-0.98,2.79-1.84,4.27-2.59
				c1.48-0.75,3.09-1.49,4.82-2.23c0.49-0.24,0.99-0.36,1.49-0.36c0.49,0,1.04-0.12,1.67-0.38c1.23-0.37,2.53-0.62,3.89-0.75
				c1.36-0.11,2.85-0.18,4.46-0.18c0.62,0,1.2,0,1.76,0c0.56,0,1.14,0.07,1.77,0.18h1.12c0.86,0.13,1.7,0.26,2.5,0.38
				c0.81,0.12,1.63,0.25,2.51,0.37c2.09,0.62,4.04,1.27,5.83,1.95c1.79,0.69,3.56,1.53,5.3,2.51c2.71,1.73,4.91,3.93,6.58,6.59
				c1.68,2.66,3.07,5.59,4.18,8.81c0.25,0.99,0.46,2.01,0.65,3.06c0.18,1.04,0.4,2.07,0.65,3.06c0.25,1.11,0.37,2.28,0.37,3.52
				c0,1.24,0.12,2.47,0.38,3.71v2.04c0.25,0.99,0.3,2.08,0.18,3.24c-0.12,1.19-0.18,2.26-0.18,3.25v13.18v28.94
				c0,2.1,0.06,4.34,0.18,6.68c0.12,2.36-0.3,4.15-1.31,5.39c-0.61,0.75-1.6,1.14-2.97,1.21c-1.36,0.07-2.72,0.09-4.07,0.09H655
				c-1.99,0-3.66-0.09-5.01-0.28c-1.36-0.19-2.36-0.95-2.97-2.32c-0.37-0.75-0.56-1.65-0.56-2.69s0-2.07,0-3.06v-10.58v-29.68
				c0-5.2-0.25-9.99-0.75-14.39c-0.49-4.39-2.03-7.83-4.63-10.3c-1.74-1.73-3.84-2.97-6.31-3.71c-0.5-0.12-0.9-0.19-1.21-0.19
				c-0.3,0-0.72-0.06-1.2-0.18c-0.51-0.12-1.16-0.25-1.96-0.37c-0.8-0.12-1.44-0.07-1.95,0.19c-0.74,0.12-1.51,0.18-2.32,0.18
				c-0.81,0-1.58,0.12-2.32,0.37c-2.85,0.75-5.33,1.86-7.42,3.34c-2.23,1.73-3.87,4.05-4.92,6.96c-1.05,2.91-1.76,6.18-2.14,9.83
				c-0.37,3.66-0.52,7.52-0.46,11.6c0.06,4.08,0.09,8.04,0.09,11.88v22.46c0,1.61,0,3.31,0,5.1c0,1.79-0.31,3.19-0.93,4.18
				c-0.37,0.49-0.87,0.83-1.49,1.02c-0.62,0.18-1.23,0.39-1.85,0.65c-0.75,0.25-1.59,0.3-2.51,0.18c-0.92-0.12-1.82-0.18-2.69-0.18
				c-1.11,0-2.41,0.03-3.89,0.1c-1.49,0.06-2.97,0.08-4.47,0.08c-1.48,0-2.84-0.08-4.08-0.27c-1.23-0.19-2.16-0.53-2.78-1.03
				c-0.75-0.62-1.15-1.58-1.21-2.87c-0.07-1.3-0.09-2.63-0.09-3.99v-16.51V233.4v-25.24c0-1.6-0.06-3.53-0.19-5.76
				c-0.12-2.23,0.13-3.83,0.74-4.82c0.75-0.86,1.73-1.49,2.97-1.86c0.25-0.11,0.49-0.16,0.74-0.09
				C587.51,195.69,587.76,195.67,588,195.55z"/>
			<path class="st0" d="M705.38,196.66c0.86,0.99,1.3,2.47,1.3,4.45c0,1.99,0,3.9,0,5.76c0,1.61,0,3.28,0,5
				c0,1.74-0.44,2.91-1.3,3.53c-0.74,0.62-1.71,0.99-2.88,1.12c-1.17,0.12-2.44,0.18-3.8,0.18h-10.39c-1.36,0-2.57-0.06-3.61-0.18
				c-1.05-0.12-1.95-0.49-2.69-1.12c-0.49-0.37-0.84-1.08-1.03-2.13c-0.18-1.04-0.3-2.23-0.36-3.53c-0.07-1.3-0.07-2.62,0-3.98
				c0.06-1.36,0.09-2.53,0.09-3.52s0.03-1.89,0.09-2.69c0.07-0.81,0.28-1.51,0.65-2.14c0.25-0.48,0.59-0.86,1.02-1.11
				c0.44-0.25,0.89-0.5,1.4-0.74c0.25,0,0.56-0.03,0.93-0.1s0.67-0.09,0.92-0.09h13.55c1.24,0,2.41,0.07,3.52,0.19
				C703.9,195.67,704.76,196.03,705.38,196.66z M706.68,317.46c0,2.48-0.07,4.58-0.19,6.32c-0.12,1.73-1.23,2.91-3.33,3.52
				c-0.74,0.25-1.55,0.34-2.42,0.28c-0.87-0.07-1.79-0.1-2.78-0.1h-10.39c-1.12,0-2.2-0.07-3.25-0.18
				c-1.05-0.12-1.82-0.49-2.32-1.12c-0.74-0.86-1.14-1.95-1.21-3.24c-0.06-1.3-0.09-2.69-0.09-4.18v-78.3c0-1.25,0-2.48,0-3.72
				c0-1.23,0.25-2.23,0.74-2.97c0.74-0.86,1.8-1.42,3.16-1.67c0.25-0.12,0.58-0.16,1.02-0.1c0.43,0.06,0.77,0.03,1.01-0.09h9.29
				c0.74,0,1.58-0.03,2.5-0.09c0.92-0.07,1.7-0.03,2.32,0.09h1.49c0.74,0.25,1.42,0.43,2.04,0.56c0.62,0.12,1.12,0.49,1.49,1.11
				c0.49,0.62,0.77,1.49,0.84,2.6c0.06,1.13,0.09,2.3,0.09,3.53V317.46z"/>
			<path class="st0" d="M810.53,278.68c0.13,0.74,0.19,1.86,0.19,3.34c0,1.49-0.12,2.53-0.37,3.15v2.41
				c-0.36,1.36-0.59,2.67-0.65,3.9c-0.07,1.24-0.28,2.47-0.66,3.71c-0.25,1.11-0.48,2.26-0.73,3.43c-0.26,1.17-0.62,2.32-1.12,3.43
				c-0.86,2.1-1.74,4.05-2.6,5.84c-0.86,1.8-1.85,3.56-2.97,5.3c-0.75,1.11-1.52,2.13-2.32,3.06c-0.81,0.92-1.71,1.88-2.69,2.87
				l-1.3,1.3c-0.62,0.62-1.27,1.17-1.95,1.67c-0.67,0.49-1.32,0.99-1.95,1.49c-0.99,0.74-2.07,1.39-3.24,1.95
				c-1.18,0.56-2.38,1.15-3.62,1.77c-1.24,0.62-2.51,1.05-3.8,1.3c-1.3,0.25-2.63,0.49-3.99,0.74c-0.74,0.25-1.52,0.37-2.32,0.37
				c-0.81,0-1.64,0.13-2.5,0.38h-1.68c-0.99,0.25-1.91,0.25-2.79,0h-1.86c-0.73-0.25-1.51-0.34-2.32-0.29
				c-0.81,0.07-1.58-0.03-2.32-0.27c-1.98-0.62-3.87-1.17-5.67-1.68c-1.79-0.49-3.43-1.23-4.91-2.22c-0.87-0.5-1.68-1.03-2.42-1.58
				c-0.74-0.56-1.55-1.14-2.41-1.76c-0.5-0.37-1.24-0.93-2.24-1.67c-0.99-0.75-1.86-0.81-2.6-0.19c-0.62,0.37-0.93,0.83-0.93,1.39
				s-0.12,1.21-0.37,1.95c-0.25,1.23-0.34,2.66-0.28,4.26c0.06,1.61,0.09,3.09,0.09,4.45v18.93c0,1.61-0.03,3.19-0.09,4.74
				c-0.07,1.54-0.4,2.81-1.02,3.79c-0.37,0.49-1.06,0.87-2.04,1.12c-0.99,0.25-2.1,0.4-3.34,0.47c-1.24,0.06-2.49,0.06-3.72,0
				c-1.23-0.07-2.28-0.1-3.15-0.1h-5.01c-0.37,0-0.81,0-1.3,0c-0.49,0-0.93-0.07-1.3-0.19h-1.48c-2.11-0.62-3.22-1.82-3.34-3.61
				c-0.12-1.8-0.19-3.93-0.19-6.4V242.3c0-1.35-0.04-2.81-0.1-4.35c-0.06-1.55,0.22-2.76,0.84-3.63c0.49-0.86,1.18-1.41,2.05-1.67
				c0.62-0.24,1.4-0.37,2.32-0.37c0.94,0,1.83,0,2.69,0h8.9c1.24,0,2.42,0,3.52,0c1.12,0,2.05,0.31,2.79,0.93
				c0.86,0.62,1.32,1.4,1.39,2.32c0.06,0.94,0.34,1.89,0.84,2.88c0.12,0.37,0.28,0.65,0.46,0.84c0.19,0.18,0.4,0.39,0.65,0.65
				c1.36,0.12,2.48-0.26,3.34-1.12c0.86-0.86,1.73-1.6,2.6-2.23c1.6-1.12,3.28-2.13,5.01-3.06c1.73-0.93,3.64-1.7,5.75-2.32
				c0.99-0.36,2.07-0.62,3.24-0.74c1.18-0.12,2.32-0.3,3.43-0.56c0.5-0.12,1.03-0.12,1.58,0c0.56,0.13,1.02,0.07,1.4-0.19
				c7.06-0.24,13.02,0.71,17.91,2.88s9.06,4.98,12.52,8.44c0.62,0.62,1.17,1.21,1.68,1.77c0.49,0.55,0.99,1.14,1.48,1.76
				c0.87,1.12,1.65,2.23,2.32,3.34c0.68,1.11,1.32,2.23,1.95,3.34c0.25,0.26,0.4,0.56,0.47,0.93c0.06,0.37,0.21,0.8,0.46,1.3
				c0.74,1.24,1.42,2.73,2.05,4.46c0.24,0.73,0.48,1.5,0.74,2.31c0.25,0.81,0.49,1.64,0.75,2.51c0.48,1.49,0.84,3.03,1.02,4.63
				c0.18,1.62,0.46,3.29,0.84,5.02c0,0.62,0.03,1.3,0.09,2.04c0.06,0.75,0.15,1.49,0.27,2.23V278.68z M784.37,282.95
				c0.12-0.62,0.18-1.45,0.18-2.51c0-1.04-0.06-1.88-0.18-2.5v-1.67c-0.25-0.74-0.37-1.55-0.37-2.41c0-0.87-0.13-1.73-0.38-2.6
				c-0.25-1.23-0.49-2.44-0.74-3.62c-0.25-1.17-0.62-2.25-1.12-3.24c-1.48-3.96-3.4-7.11-5.75-9.46c-2.36-2.35-5.69-4.09-10.02-5.2
				c-0.99-0.25-2.07-0.37-3.24-0.37c-1.18,0-2.32,0-3.43,0c-0.5,0.12-0.93,0.18-1.31,0.18c-0.37,0-0.8,0.07-1.3,0.19
				c-0.87,0.26-1.71,0.46-2.5,0.65c-0.81,0.19-1.59,0.46-2.32,0.84c-3.21,1.36-5.72,3.47-7.51,6.31c-1.8,2.85-3.25,6-4.37,9.46
				c-0.25,0.99-0.43,2.01-0.55,3.06c-0.12,1.05-0.31,2.08-0.56,3.06c-0.12,0.49-0.19,1.3-0.19,2.41c-0.25,0.49-0.3,1.08-0.18,1.76
				c0.12,0.69,0.12,1.34,0,1.95c-0.25,0.75-0.25,1.43,0,2.05v2.23c0,0.61,0,1.18,0,1.67c0,0.49,0.12,0.99,0.37,1.49
				c0,0.86,0.07,1.54,0.19,2.04c0.12,0.74,0.25,1.49,0.37,2.23c0.12,0.75,0.3,1.49,0.55,2.23c1.12,3.59,2.45,6.53,3.99,8.82
				c1.54,2.28,3.75,4.3,6.6,6.03c1.73,0.99,3.76,1.79,6.12,2.42c0.49,0.12,0.93,0.15,1.3,0.09c0.38-0.07,0.81-0.02,1.31,0.09
				c0.49,0.12,1.23,0.21,2.23,0.28c0.99,0.07,1.79,0.03,2.41-0.09c0.99-0.25,2.01-0.46,3.07-0.65c1.04-0.19,2.06-0.47,3.05-0.84
				c2.97-1.24,5.39-2.96,7.24-5.2c1.86-2.23,3.41-4.82,4.64-7.79c0.62-1.48,1.04-3.02,1.3-4.63c0.25-1.61,0.56-3.28,0.94-5.01
				c0-0.62,0.02-1.24,0.08-1.86C784.33,284.18,784.37,283.57,784.37,282.95z"/>
			<path class="st0" d="M818.31,195.36h15.77c1.36,0,2.69,0.03,3.99,0.09c1.3,0.07,2.25,0.52,2.87,1.4c0.62,0.86,0.93,2,0.93,3.42
				c0,1.42,0,2.95,0,4.55v16.89v56.23v10.95c0,1-0.03,1.95-0.09,2.88c-0.07,0.93,0.03,1.82,0.28,2.68v1.86
				c0,0.87,0.03,1.7,0.08,2.51c0.07,0.8,0.22,1.51,0.47,2.13c0.86,1.61,2.6,2.41,5.2,2.41c2.6,0,5.13,0,7.61,0h35.99
				c0.99,0,2.23-0.03,3.72-0.09c1.48-0.07,2.9-0.07,4.26,0c1.36,0.06,2.63,0.21,3.8,0.46c1.18,0.25,1.95,0.62,2.32,1.12
				c0.62,0.74,0.93,1.67,0.93,2.78c0,1.11,0,2.28,0,3.52v8.53c0,1,0.03,1.92,0.09,2.78c0.06,0.87-0.03,1.61-0.27,2.23
				c-0.51,0.99-1.12,1.68-1.87,2.05c-0.62,0.49-1.54,0.74-2.78,0.74c-1.24,0-2.42,0-3.53,0h-13.17h-50.29h-13.36
				c-1.74,0-3.25-0.09-4.55-0.28c-1.3-0.18-2.26-0.76-2.87-1.75c-0.49-0.76-0.74-1.71-0.74-2.88s0-2.32,0-3.43v-12.99v-49.18v-41.94
				v-11.69c0-1.12,0.03-2.23,0.08-3.34c0.07-1.12,0.29-1.98,0.66-2.6c0.49-0.86,1.49-1.49,2.97-1.85c0.25-0.12,0.48-0.16,0.74-0.1
				C817.8,195.51,818.06,195.48,818.31,195.36z"/>
			<path class="st0" d="M992.37,320.25c0.25,1.36,0.4,2.72,0.46,4.08s-0.59,2.29-1.95,2.79c-0.74,0.36-1.61,0.55-2.6,0.55
				c-0.99,0-1.98,0-2.97,0H975.3c-1.11,0-2.19-0.02-3.25-0.09c-1.05-0.07-1.88-0.34-2.5-0.84c-0.87-0.49-1.52-1.21-1.95-2.14
				c-0.43-0.93-1.02-1.7-1.76-2.32c-0.25-0.25-0.56-0.47-0.93-0.65c-0.37-0.19-0.87-0.21-1.49-0.1c-0.62,0.25-1.2,0.56-1.76,0.93
				c-0.56,0.37-1.15,0.68-1.76,0.93c-0.62,0.5-1.31,0.93-2.04,1.3c-0.75,0.38-1.49,0.76-2.23,1.12c-1.61,0.74-3.28,1.33-5.01,1.77
				c-1.73,0.43-3.52,0.89-5.38,1.39c-0.87,0.25-1.7,0.4-2.5,0.47c-0.81,0.07-1.65,0.15-2.51,0.27c-0.37,0-0.75,0.03-1.12,0.09
				c-0.37,0.07-0.74,0.1-1.12,0.1h-2.04c-1.24,0.25-2.47,0.25-3.71,0h-1.67c-0.87-0.25-1.71-0.34-2.5-0.28
				c-0.81,0.07-1.59-0.03-2.32-0.28c-1.24-0.25-2.42-0.46-3.53-0.65c-1.11-0.18-2.17-0.53-3.15-1.02c-3.59-1.36-6.65-3.12-9.19-5.29
				c-2.53-2.17-4.54-5.03-6.03-8.63c-0.36-0.86-0.71-1.79-1.02-2.78c-0.3-0.99-0.59-2.05-0.83-3.16c-0.26-0.62-0.35-1.23-0.28-1.85
				c0.06-0.62,0.02-1.24-0.1-1.86c-0.12-0.37-0.22-1.14-0.28-2.32c-0.06-1.18-0.03-2.01,0.1-2.51c0.24-1.23,0.37-2.29,0.37-3.15
				c0.37-1.36,0.74-2.76,1.11-4.17c0.38-1.42,0.87-2.7,1.49-3.81c2.1-3.59,4.51-6.31,7.24-8.16c2.71-1.86,6.18-3.47,10.39-4.82
				c1.6-0.63,3.27-1.05,5-1.3c1.74-0.25,3.48-0.56,5.2-0.94c0.99-0.24,2.04-0.39,3.16-0.46c1.11-0.07,2.22-0.21,3.34-0.46
				c0.86-0.26,1.73-0.34,2.6-0.28c0.87,0.07,1.8-0.03,2.78-0.29c0.86-0.25,1.73-0.36,2.6-0.36c0.86,0,1.79-0.12,2.78-0.37
				c2.59-0.62,4.98-1.15,7.15-1.58c2.16-0.43,4.11-1.51,5.84-3.24c1.11-1.12,1.86-2.35,2.23-3.71c0.12-0.38,0.16-0.68,0.1-0.93
				c-0.07-0.25-0.03-0.49,0.09-0.74c0.12-0.26,0.18-0.62,0.18-1.12c0-0.49,0-0.87,0-1.11c-0.12-0.49-0.21-0.99-0.27-1.5
				c-0.07-0.48-0.15-0.92-0.28-1.3c-1.25-3.7-3.84-6.24-7.8-7.6c-1.11-0.37-2.44-0.65-3.98-0.84c-1.55-0.18-3.12-0.25-4.73-0.18
				c-1.61,0.06-3.15,0.21-4.64,0.46c-1.48,0.25-2.78,0.56-3.9,0.94c-0.74,0.25-1.44,0.58-2.14,1.02c-0.68,0.43-1.33,0.89-1.94,1.39
				c-0.62,0.5-1.28,1.18-1.95,2.04c-0.68,0.87-1.14,1.68-1.39,2.42c-0.62,1.24-1.15,2.41-1.59,3.52c-0.43,1.13-1.32,1.87-2.68,2.23
				c-0.99,0.25-2.04,0.37-3.15,0.37s-2.23,0-3.34,0h-7.05c-0.62,0-1.23,0.03-1.86,0.09c-0.62,0.07-1.17,0.04-1.67-0.09h-1.67
				c-0.25-0.12-0.56-0.19-0.93-0.19c-0.37,0-0.68-0.12-0.93-0.37c-0.99-0.25-1.68-1.05-2.05-2.41c-0.12-0.63-0.12-1.24,0-1.86
				c0.12-0.62,0.25-1.18,0.37-1.68c0.38-1.36,0.77-2.63,1.21-3.8c0.44-1.17,0.96-2.26,1.58-3.25c0.37-0.62,0.75-1.23,1.12-1.86
				c0.37-0.61,0.75-1.23,1.11-1.86c0.99-1.36,2.23-2.65,3.71-3.89c0.25-0.11,0.62-0.44,1.12-0.93c0.62-0.49,1.17-0.93,1.68-1.3
				c0.48-0.37,1.04-0.74,1.66-1.12c2.11-1.36,4.34-2.44,6.68-3.24c2.35-0.8,4.76-1.58,7.24-2.32c1.5-0.36,3.04-0.62,4.65-0.74
				c1.6-0.12,3.21-0.37,4.82-0.75c0.48-0.11,1.26-0.11,2.32,0c1.05,0.13,1.7,0.07,1.95-0.18c5.08-0.11,9.93,0.07,14.57,0.56
				c4.64,0.49,8.85,1.42,12.62,2.78c3.77,1.36,7.01,3.19,9.74,5.47c2.72,2.29,4.83,5.23,6.31,8.81c0.86,2.11,1.36,4.52,1.49,7.24
				c0.12,2.72,0.19,5.5,0.19,8.35v41.38c0,2.36,0,4.74,0,7.15c0,2.41,0.24,4.61,0.74,6.58c0.11,0.37,0.18,0.77,0.18,1.21
				C992.18,319.47,992.24,319.88,992.37,320.25z M965.09,291.67c0.12-0.62,0.19-1.33,0.19-2.14c0-0.8-0.07-1.51-0.19-2.14
				c-0.25-0.73-0.37-1.42-0.37-2.03c0-0.62-0.25-1.12-0.74-1.49c-0.62-0.49-1.54-0.75-2.78-0.75c-0.49,0.13-0.93,0.21-1.3,0.28
				c-0.37,0.06-0.81,0.16-1.31,0.28c-0.86,0.25-1.79,0.43-2.78,0.56c-0.99,0.12-1.99,0.3-2.97,0.55c-0.37,0.13-0.93,0.19-1.67,0.19
				c-1.61,0.38-3.22,0.62-4.83,0.74c-1.61,0.13-3.15,0.44-4.64,0.94c-0.99,0.25-1.91,0.46-2.78,0.65c-0.87,0.18-1.74,0.46-2.6,0.83
				c-2.6,1.11-4.8,2.79-6.6,5.01c-1.8,2.23-2.44,5.32-1.95,9.28c0.24,2.1,0.93,3.85,2.04,5.2c0.87,1.36,2.17,2.45,3.9,3.24
				c1.73,0.81,3.61,1.39,5.66,1.77c2.05,0.37,4.21,0.46,6.5,0.28c2.28-0.19,4.42-0.59,6.4-1.21c3.22-0.99,5.76-2.57,7.61-4.73
				c1.85-2.17,3.28-4.86,4.27-8.07c0.25-0.86,0.39-1.77,0.46-2.69c0.06-0.93,0.21-1.89,0.46-2.87V291.67z"/>
			<path class="st0" d="M1094.44,283.25c-0.12,0.74-0.22,1.48-0.29,2.23c-0.06,0.74-0.08,1.42-0.08,2.04
				c-0.38,1.73-0.65,3.41-0.84,5.01c-0.19,1.61-0.52,3.15-1.03,4.64c-0.25,0.87-0.49,1.7-0.74,2.5c-0.25,0.81-0.49,1.58-0.74,2.32
				c-0.62,1.72-1.3,3.21-2.05,4.46c-0.25,0.48-0.4,0.92-0.46,1.3c-0.07,0.37-0.21,0.67-0.47,0.92c-0.62,1.13-1.27,2.24-1.95,3.34
				c-0.68,1.12-1.45,2.23-2.32,3.33c-0.48,0.62-0.99,1.22-1.48,1.77c-0.49,0.55-1.05,1.13-1.68,1.76
				c-3.46,3.47-7.63,6.27-12.52,8.44c-4.89,2.16-10.86,3.13-17.91,2.87c-0.37-0.25-0.84-0.31-1.39-0.18c-0.56,0.12-1.09,0.12-1.58,0
				c-1.11-0.25-2.26-0.44-3.42-0.56c-1.17-0.12-2.26-0.37-3.25-0.74c-2.1-0.62-4.02-1.4-5.75-2.32c-1.74-0.93-3.41-1.95-5.02-3.06
				c-0.85-0.62-1.73-1.36-2.59-2.23c-0.88-0.86-1.99-1.24-3.34-1.12c-0.25,0.25-0.46,0.47-0.65,0.66c-0.19,0.18-0.34,0.46-0.47,0.83
				c-0.49,0.99-0.77,1.95-0.83,2.88c-0.07,0.92-0.53,1.69-1.4,2.32c-0.75,0.62-1.67,0.93-2.78,0.93c-1.12,0-2.29,0-3.52,0h-8.91
				c-0.86,0-1.76,0-2.68,0c-0.94,0-1.71-0.12-2.32-0.37c-0.86-0.26-1.54-0.81-2.04-1.67c-0.62-0.87-0.9-2.08-0.84-3.62
				c0.06-1.55,0.09-3,0.09-4.36V208.65c0-2.48,0.07-4.61,0.19-6.41c0.12-1.79,1.22-3,3.33-3.61h1.49c0.38-0.12,0.81-0.19,1.3-0.19
				c0.49,0,0.93,0,1.31,0h5c0.87,0,1.92-0.03,3.15-0.09c1.24-0.06,2.48-0.06,3.72,0c1.22,0.06,2.35,0.21,3.34,0.46
				c0.99,0.25,1.68,0.62,2.05,1.12c0.62,0.99,0.96,2.26,1.03,3.8c0.06,1.54,0.09,3.13,0.09,4.73v18.93c0,1.36-0.03,2.84-0.09,4.45
				c-0.07,1.61,0.02,3.03,0.27,4.27c0.25,0.74,0.37,1.39,0.37,1.95s0.31,1.03,0.93,1.39c0.75,0.62,1.61,0.56,2.6-0.18
				c0.99-0.75,1.73-1.31,2.22-1.67c0.88-0.62,1.68-1.21,2.42-1.77c0.73-0.55,1.54-1.08,2.41-1.57c1.49-0.99,3.13-1.73,4.92-2.23
				c1.79-0.49,3.68-1.04,5.66-1.67c0.74-0.25,1.51-0.34,2.32-0.28c0.8,0.07,1.57-0.03,2.32-0.28h1.86c0.86-0.24,1.78-0.24,2.79,0
				h1.68c0.85,0.25,1.69,0.38,2.5,0.38c0.8,0,1.57,0.12,2.32,0.37c1.36,0.25,2.69,0.5,3.99,0.75c1.3,0.24,2.56,0.67,3.8,1.3
				c1.23,0.61,2.44,1.2,3.61,1.76s2.25,1.21,3.25,1.95c0.62,0.49,1.26,0.99,1.95,1.49c0.67,0.49,1.33,1.05,1.95,1.67l1.3,1.31
				c0.99,0.99,1.89,1.95,2.69,2.87c0.81,0.93,1.58,1.95,2.32,3.06c1.12,1.74,2.1,3.5,2.97,5.29c0.87,1.8,1.73,3.75,2.61,5.85
				c0.48,1.12,0.85,2.26,1.1,3.43c0.25,1.18,0.5,2.32,0.75,3.44c0.37,1.23,0.59,2.46,0.66,3.7c0.06,1.24,0.27,2.54,0.64,3.9v2.41
				c0.25,0.62,0.37,1.67,0.37,3.15c0,1.5-0.06,2.6-0.18,3.34V283.25z M1068.18,275.08c-0.07-0.62-0.1-1.24-0.1-1.87
				c-0.37-1.72-0.68-3.39-0.93-5c-0.25-1.61-0.68-3.16-1.3-4.65c-1.24-2.97-2.78-5.56-4.64-7.79c-1.85-2.23-4.26-3.96-7.24-5.2
				c-0.99-0.37-2-0.65-3.06-0.83c-1.04-0.19-2.07-0.41-3.06-0.66c-0.62-0.12-1.41-0.15-2.42-0.09c-0.99,0.07-1.73,0.15-2.22,0.28
				c-0.49,0.12-0.93,0.16-1.31,0.09c-0.36-0.06-0.8-0.03-1.3,0.09c-2.35,0.62-4.39,1.42-6.12,2.42c-2.85,1.72-5.04,3.74-6.59,6.02
				c-1.55,2.29-2.88,5.23-3.99,8.82c-0.25,0.75-0.44,1.49-0.56,2.23c-0.12,0.75-0.25,1.49-0.37,2.23c-0.13,0.48-0.19,1.17-0.19,2.03
				c-0.25,0.5-0.37,0.99-0.37,1.49c0,0.49,0,1.06,0,1.67v2.23c-0.25,0.62-0.25,1.3,0,2.05c0.12,0.61,0.12,1.26,0,1.95
				c-0.12,0.68-0.07,1.26,0.19,1.76c0,1.12,0.06,1.92,0.18,2.42c0.25,0.99,0.44,2.01,0.56,3.06c0.12,1.05,0.3,2.07,0.56,3.06
				c1.11,3.46,2.56,6.61,4.35,9.46c1.8,2.84,4.3,4.95,7.52,6.31c0.74,0.38,1.52,0.65,2.32,0.84c0.8,0.18,1.64,0.4,2.5,0.65
				c0.49,0.12,0.94,0.18,1.3,0.18c0.38,0,0.81,0.07,1.31,0.19c1.11,0,2.26,0,3.43,0c1.17,0,2.25-0.12,3.24-0.37
				c4.33-1.11,7.67-2.85,10.02-5.19c2.36-2.36,4.27-5.51,5.76-9.47c0.48-0.99,0.86-2.08,1.11-3.24c0.25-1.18,0.49-2.39,0.74-3.62
				c0.25-0.87,0.38-1.73,0.38-2.6c0-0.87,0.12-1.68,0.37-2.41v-1.67c0.12-0.62,0.19-1.46,0.19-2.51c0-1.05-0.07-1.89-0.19-2.5
				C1068.27,276.31,1068.24,275.7,1068.18,275.08z"/>
		</g>
		<path class="st0" d="M244.66,158.41l123.25-33.24c0,0,24.92-6.23,32.53,7.61c7.62,13.86,42.24,2.78,49.86,18
			c7.61,15.24-25.63,27.01-62.31,36.01c-36.71,9.01-71.33,20.08-76.18,27.7c-5.54-7.62-37.39-13.16-51.23-11.08
			c-13.86,2.08-38.09,11.08-38.77,13.85c-2.78-2.77-34.63-23.54-63.71-6.93c-4.16-2.08-8.3-6.23-13.85-5.54
			c18-6.23,45.25-15.77,47.03-16.44c1.79-0.66-5.88-2.8-12.48-5.13c-6.92-10.73-3.35-11.58,6.91-15.39
			c8.47-3.35,16.06-6.24,16.06-6.24l-21.64-47.29c0,0,16.73-8.26,35.47,12.93C234.33,148.44,238.02,159.46,244.66,158.41z"/>
		<polygon class="st0" points="497,92.59 500.35,109.21 516.96,112.55 500.35,115.89 497,132.51 493.67,115.89 477.05,112.55 
			493.67,109.21 		"/>
		<polygon class="st0" points="360.04,62.16 362.46,74.22 374.53,76.64 362.46,79.07 360.04,91.13 357.62,79.07 345.55,76.64 
			357.62,74.22 		"/>
		<polygon class="st0" points="446.95,36.23 448.46,43.74 455.96,45.25 448.46,46.76 446.95,54.26 445.45,46.76 437.94,45.25 
			445.45,43.74 		"/>
		<polygon class="st0" points="451.23,108.5 452.74,116 460.24,117.51 452.74,119.02 451.23,126.51 449.72,119.02 442.22,117.51 
			449.72,116 		"/>
		<path class="st0" d="M1132.05,229.32c9.28-0.25,17.36,0.77,24.21,3.05c6.87,2.3,12.1,6.23,15.69,11.79
			c0.87,1.36,1.64,2.75,2.32,4.17c0.67,1.43,1.26,3.01,1.77,4.74c0.24,0.74,0.36,1.55,0.36,2.41c0,0.87-0.12,1.61-0.36,2.23
			c-0.5,0.74-1.18,1.23-2.05,1.49c-0.62,0.25-1.36,0.37-2.23,0.37c-0.87,0-1.74,0-2.6,0H1161c-0.86,0-1.73,0.03-2.6,0.09
			c-0.87,0.07-1.67-0.03-2.41-0.28c-1.24-0.25-2.17-0.75-2.78-1.48c-0.63-0.75-1.18-1.52-1.68-2.32c-0.49-0.81-0.96-1.67-1.4-2.6
			c-0.44-0.92-1.08-1.69-1.95-2.32c-1.23-0.99-2.44-1.73-3.61-2.23c-1.18-0.49-2.63-0.93-4.36-1.31c-0.87-0.24-2.14-0.42-3.8-0.55
			c-1.68-0.12-2.95-0.06-3.81,0.19h-1.3c-0.62,0.12-1.21,0.21-1.76,0.27c-0.57,0.07-1.15,0.16-1.77,0.28
			c-2.11,0.62-3.8,1.46-5.11,2.5c-1.3,1.06-2.19,2.63-2.69,4.74c-0.25,0.86-0.25,1.67,0,2.41c0.25,0.75,0.49,1.36,0.74,1.86
			c0.87,1.49,1.88,2.66,3.06,3.53c1.17,0.86,2.57,1.6,4.18,2.23c2.34,0.98,4.91,1.82,7.7,2.5c2.78,0.68,5.63,1.3,8.53,1.85
			c2.91,0.56,5.76,1.19,8.54,1.86c2.78,0.69,5.41,1.52,7.88,2.51c1.12,0.49,2.19,0.89,3.25,1.2c1.04,0.32,2.07,0.78,3.05,1.4
			c2.36,1.49,4.49,3.1,6.41,4.83c1.91,1.73,3.43,3.89,4.54,6.49c0.37,0.87,0.68,1.73,0.93,2.6c0.25,0.87,0.5,1.81,0.74,2.78
			c0.12,0.75,0.22,1.89,0.29,3.43c0.07,1.55,0.03,2.76-0.1,3.62v0.93c-0.25,0.75-0.4,1.46-0.46,2.13c-0.07,0.69-0.15,1.34-0.28,1.96
			c-0.87,3.7-2.23,6.98-4.08,9.82c-1.98,2.97-4.4,5.39-7.24,7.24c-2.85,1.86-6.06,3.47-9.65,4.82c-1.36,0.62-2.82,1.05-4.36,1.3
			c-1.55,0.25-3.06,0.56-4.55,0.94c-1.12,0.24-2.26,0.4-3.43,0.46c-1.18,0.07-2.32,0.21-3.43,0.46h-3.34
			c-0.75,0.26-2.01,0.38-3.8,0.38c-1.8,0-3.07-0.12-3.81-0.38c-0.37,0-0.77-0.02-1.21-0.09c-0.44-0.06-0.89-0.09-1.39-0.09
			c-1.49-0.26-2.97-0.44-4.45-0.56c-1.49-0.12-2.91-0.37-4.27-0.74c-4.83-1.36-9.1-2.94-12.8-4.74c-3.71-1.79-6.87-4.48-9.47-8.07
			c-1.73-2.35-3.22-5.08-4.45-8.16c-0.26-0.75-0.49-1.73-0.74-2.97c-0.25-0.62-0.44-1.49-0.56-2.6c-0.12-1.11-0.07-2.04,0.19-2.78
			c0.37-0.86,0.99-1.49,1.86-1.86c0.62-0.25,1.36-0.37,2.22-0.37c0.87,0,1.79,0,2.79,0h8.71c0.99,0,1.98,0,2.97,0
			c0.99,0,1.86,0.12,2.6,0.37c1.35,0.49,2.25,1.3,2.68,2.42c0.43,1.11,0.95,2.28,1.58,3.52c0.25,0.62,0.71,1.42,1.4,2.41
			c0.67,0.99,1.26,1.62,1.76,1.87c1.49,1.23,2.91,2.19,4.26,2.87c1.37,0.67,3.1,1.32,5.21,1.95c0.62,0.25,1.23,0.34,1.85,0.28
			c0.62-0.07,1.24-0.03,1.87,0.09c0.99,0.26,2.06,0.35,3.24,0.28c1.18-0.06,2.2-0.21,3.07-0.47c0.62-0.11,1.21-0.18,1.76-0.18
			c0.56,0,1.14-0.12,1.76-0.37c1.73-0.62,3.31-1.36,4.73-2.23c1.42-0.87,2.57-1.98,3.44-3.34c0.61-0.99,1.11-2.54,1.48-4.64
			c0.25-0.86,0.25-1.67,0-2.42c-0.25-0.74-0.5-1.36-0.75-1.86c-0.86-1.73-1.95-3.03-3.24-3.89c-1.3-0.86-2.82-1.67-4.55-2.41
			c-2.35-0.99-4.82-1.79-7.42-2.41c-2.6-0.62-5.2-1.31-7.79-2.05c-0.99-0.25-2.02-0.44-3.06-0.56c-1.05-0.12-2.07-0.31-3.06-0.55
			c-3.96-1.12-7.74-2.2-11.33-3.26c-3.58-1.04-6.86-2.62-9.83-4.72c-3.46-2.48-6-5.82-7.61-10.03c-0.25-0.86-0.49-2.04-0.74-3.52
			c-0.25-0.85-0.44-1.91-0.57-3.15c-0.11-1.23-0.06-2.35,0.19-3.34c0.25-0.62,0.31-1.14,0.19-1.57c-0.12-0.44-0.07-0.96,0.19-1.58
			c0.25-1.36,0.52-2.63,0.83-3.8c0.31-1.17,0.71-2.32,1.21-3.43c1.6-3.58,3.84-6.49,6.68-8.72c2.85-2.24,6.06-4.02,9.65-5.38
			c1.36-0.62,2.78-1.08,4.28-1.39c1.48-0.31,3.02-0.65,4.63-1.03c0.74-0.25,1.49-0.4,2.23-0.46c0.75-0.06,1.48-0.15,2.23-0.29
			c0.98-0.11,2.04-0.18,3.15-0.18C1130.02,229.5,1131.07,229.44,1132.05,229.32z"/>
	</g>
</g>
</svg>
